<?xml version="1.0" encoding="UTF-8"?>
<svg xmlns="http://www.w3.org/2000/svg" xmlns:xlink="http://www.w3.org/1999/xlink" version="1.1" viewBox="0 0 1008 1080">
  <!-- Generator: Adobe Illustrator 29.1.0, SVG Export Plug-In . SVG Version: 2.1.0 Build 142)  -->
  <defs>
    <style>
      .st0, .st1, .st2, .st3, .st4 {
        fill: none;
      }

      .st5, .st6, .st7, .st8, .st9, .st10, .st11 {
        fill-rule: evenodd;
      }

      .st5, .st6, .st12, .st13, .st14, .st15, .st16, .st17, .st18, .st19 {
        opacity: .5;
      }

      .st5, .st20, .st16 {
        fill: #262626;
      }

      .st21 {
        fill: #e0e0e0;
      }

      .st22 {
        fill: #9f2542;
      }

      .st7, .st23 {
        fill: #fff;
      }

      .st24 {
        fill: url(#linear-gradient2);
      }

      .st25 {
        fill: url(#linear-gradient1);
      }

      .st26 {
        fill: url(#linear-gradient9);
      }

      .st27 {
        fill: url(#linear-gradient3);
      }

      .st28 {
        fill: url(#linear-gradient6);
      }

      .st29 {
        fill: #202529;
      }

      .st1 {
        stroke: #0f62fe;
        stroke-width: 2px;
      }

      .st1, .st2, .st4 {
        stroke-miterlimit: 10;
      }

      .st30 {
        fill: url(#linear-gradient5);
      }

      .st30, .st31 {
        opacity: .8;
      }

      .st32 {
        fill: url(#linear-gradient4);
      }

      .st32, .st33 {
        opacity: .4;
      }

      .st34, .st14, .st11 {
        fill: #393939;
      }

      .st35 {
        fill: #545454;
      }

      .st12, .st36 {
        fill: #525252;
      }

      .st37 {
        fill: url(#linear-gradient28);
      }

      .st38 {
        fill: url(#linear-gradient29);
      }

      .st39 {
        fill: url(#linear-gradient18);
      }

      .st40 {
        fill: url(#linear-gradient13);
      }

      .st41 {
        fill: url(#linear-gradient12);
      }

      .st42 {
        fill: url(#linear-gradient15);
      }

      .st43 {
        fill: url(#linear-gradient16);
      }

      .st44 {
        fill: url(#linear-gradient11);
      }

      .st45 {
        fill: url(#linear-gradient10);
      }

      .st46 {
        fill: url(#linear-gradient17);
      }

      .st47 {
        fill: url(#linear-gradient14);
      }

      .st48 {
        fill: url(#linear-gradient19);
      }

      .st49 {
        fill: url(#linear-gradient23);
      }

      .st50 {
        fill: url(#linear-gradient22);
      }

      .st51 {
        fill: url(#linear-gradient24);
      }

      .st52 {
        fill: url(#linear-gradient25);
      }

      .st53 {
        fill: url(#linear-gradient21);
      }

      .st54 {
        fill: url(#linear-gradient20);
      }

      .st55 {
        fill: url(#linear-gradient27);
      }

      .st56 {
        fill: url(#linear-gradient26);
      }

      .st31, .st33, .st13, .st57 {
        fill: #0f62fe;
      }

      .st58 {
        fill: #a2a9b0;
      }

      .st59 {
        fill: #f4f4f4;
      }

      .st60 {
        fill: #090b0c;
      }

      .st61 {
        fill: #f3f3f3;
      }

      .st61, .st62, .st63 {
        mix-blend-mode: multiply;
      }

      .st64 {
        fill: url(#linear-gradient);
      }

      .st65 {
        fill: #ffa094;
      }

      .st66 {
        fill: #78a9ff;
      }

      .st67 {
        fill: #50565b;
      }

      .st68 {
        fill: #090517;
      }

      .st69 {
        fill: #4d4d4d;
      }

      .st70 {
        fill: #dde1e6;
      }

      .st71 {
        isolation: isolate;
      }

      .st72, .st10 {
        fill: #c6c6c6;
      }

      .st73 {
        fill: #f2f4f8;
      }

      .st74 {
        clip-path: url(#clippath-3);
      }

      .st75 {
        clip-path: url(#clippath-4);
      }

      .st76 {
        clip-path: url(#clippath-2);
      }

      .st15, .st9, .st77 {
        fill: #161616;
      }

      .st78 {
        fill: #6f6f6f;
      }

      .st2 {
        stroke: #6f6f6f;
      }

      .st3 {
        stroke: #171717;
        stroke-linejoin: round;
      }

      .st79 {
        fill: #121619;
      }

      .st80 {
        fill: #21272a;
      }

      .st81 {
        fill: #97c1ff;
      }

      .st4 {
        stroke: #e8e8e8;
      }

      .st82 {
        fill: #76829b;
      }

      .st83 {
        fill: #373d42;
      }

      .st84 {
        fill: #4589ff;
      }

      .st85 {
        fill: #b9bfc7;
      }

      .st86 {
        fill: #b3b3b3;
      }

      .st87 {
        fill: #242a2e;
      }

      .st88, .st18 {
        fill: #8d8d8d;
      }

      .st89 {
        fill: #838e93;
      }

      .st90 {
        fill: #0043ce;
      }

      .st91 {
        fill: #c1c7cd;
      }

      .st92, .st19 {
        fill: #a8a8a8;
      }

      .st62 {
        fill: url(#linear-gradient8);
      }

      .st63 {
        fill: url(#linear-gradient7);
      }

      .st93 {
        fill: #d0e2ff;
      }

      .st94 {
        fill: #333;
      }

      .st95 {
        fill: #13171a;
      }

      .st96 {
        fill: #0062ff;
      }

      .st97 {
        fill: #d5d9e0;
      }

      .st98 {
        fill: #801833;
      }
    </style>
    <linearGradient id="linear-gradient" x1="-2771.53" y1="534.64" x2="-2771.53" y2="560.56" gradientTransform="translate(-2179.11) rotate(-180) scale(1 -1)" gradientUnits="userSpaceOnUse">
      <stop offset=".44" stop-color="#000"/>
      <stop offset="1" stop-color="#000" stop-opacity="0"/>
    </linearGradient>
    <linearGradient id="linear-gradient1" x1="308.58" y1="646.99" x2="308.58" y2="564.23" gradientUnits="userSpaceOnUse">
      <stop offset="0" stop-color="#d5d9e0"/>
      <stop offset="1" stop-color="#f2f4f8" stop-opacity="0"/>
    </linearGradient>
    <clipPath id="clippath-2">
      <path id="SVGID2" data-name="SVGID" class="st87" d="M613.95,698.08l8.98-5.58v-.25s0,.25,0,.25c.34-.21.51-.48.51-.75l.09-.84c0,.27-.11.36-.45.57h0s-9.14,5.59-9.14,5.59c-.68.42-1.78.42-2.47.02l-18.48-11.04c-.34-.2-.56-.25-.57-.52l.06.79c0,.27.17.53.51.74l18.48,11.04c.68.41,1.79.4,2.47-.02"/>
    </clipPath>
    <linearGradient id="linear-gradient2" x1="3498.68" y1="-5078.34" x2="3514.69" y2="-5098.61" gradientTransform="translate(-2082.68 -4873.82) rotate(119.61)" gradientUnits="userSpaceOnUse">
      <stop offset="0" stop-color="#373d42"/>
      <stop offset="1" stop-color="#13171a"/>
    </linearGradient>
    <clipPath id="clippath-3">
      <path id="SVGID4" data-name="SVGID" class="st24" d="M621.56,690.67c.11-.07.11-.18,0-.25l-17.15-10.24c-.11-.07-.3-.07-.41,0l-9.14,5.59c-.11.07-.11.18,0,.25l17.15,10.24c.11.07.3.07.41,0l9.14-5.59Z"/>
    </clipPath>
    <clipPath id="clippath-4">
      <path id="SVGID6" data-name="SVGID" class="st58" d="M147.18,690.82h0v-1.12h1.66l28.7-17.43c.23-.14.59-.16.79-.03l18.42,11.1h1.67v1.13h0c0,.1-.06.2-.19.28l-30.17,18.31c-.23.14-.59.16-.79.03l-19.96-12.03c-.1-.06-.15-.15-.13-.24"/>
    </clipPath>
    <linearGradient id="linear-gradient3" x1="317.21" y1="614.87" x2="451.22" y2="614.87" gradientUnits="userSpaceOnUse">
      <stop offset=".25" stop-color="#4589ff"/>
      <stop offset=".33" stop-color="#4185fc"/>
      <stop offset=".39" stop-color="#387cf6"/>
      <stop offset=".44" stop-color="#286bea"/>
      <stop offset=".49" stop-color="#1154da"/>
      <stop offset=".52" stop-color="#0043ce"/>
    </linearGradient>
    <linearGradient id="linear-gradient4" x1="343.66" y1="611.67" x2="424.77" y2="611.67" gradientUnits="userSpaceOnUse">
      <stop offset="0" stop-color="#2f81fe"/>
      <stop offset="1" stop-color="#a6c8ff"/>
    </linearGradient>
    <linearGradient id="linear-gradient5" x1="384.21" y1="629.37" x2="384.21" y2="511.86" gradientUnits="userSpaceOnUse">
      <stop offset="0" stop-color="#0f62fe"/>
      <stop offset=".21" stop-color="#397efe" stop-opacity=".72"/>
      <stop offset=".42" stop-color="#5f98fe" stop-opacity=".47"/>
      <stop offset=".61" stop-color="#7dacfe" stop-opacity=".27"/>
      <stop offset=".78" stop-color="#93bbfe" stop-opacity=".12"/>
      <stop offset=".91" stop-color="#a1c4fe" stop-opacity=".03"/>
      <stop offset="1" stop-color="#a6c8ff" stop-opacity="0"/>
    </linearGradient>
    <linearGradient id="linear-gradient6" x1="343.66" y1="603.78" x2="424.77" y2="603.78" gradientUnits="userSpaceOnUse">
      <stop offset=".48" stop-color="#0043ce"/>
      <stop offset=".51" stop-color="#1154da"/>
      <stop offset=".56" stop-color="#286bea"/>
      <stop offset=".61" stop-color="#387cf6"/>
      <stop offset=".67" stop-color="#4185fc"/>
      <stop offset=".75" stop-color="#4589ff"/>
    </linearGradient>
    <linearGradient id="linear-gradient7" x1="1388.96" y1="441.52" x2="1442.71" y2="441.52" gradientTransform="translate(-722.7)" gradientUnits="userSpaceOnUse">
      <stop offset="0" stop-color="#f3f3f3"/>
      <stop offset="1" stop-color="#dcdcdc" stop-opacity="0"/>
    </linearGradient>
    <linearGradient id="linear-gradient8" x1="1334.63" y1="436.34" x2="1388.39" y2="436.34" xlink:href="#linear-gradient7"/>
    <linearGradient id="linear-gradient9" x1="515.01" y1="431.36" x2="515.01" y2="282.65" gradientUnits="userSpaceOnUse">
      <stop offset="0" stop-color="#408bfc" stop-opacity=".5"/>
      <stop offset=".33" stop-color="#3b70d5" stop-opacity=".29"/>
      <stop offset=".63" stop-color="#385cb8" stop-opacity=".13"/>
      <stop offset=".86" stop-color="#3650a6" stop-opacity=".04"/>
      <stop offset="1" stop-color="#364ca0" stop-opacity="0"/>
    </linearGradient>
    <linearGradient id="linear-gradient10" x1="769.88" y1="621.6" x2="922.34" y2="621.6" gradientUnits="userSpaceOnUse">
      <stop offset="0" stop-color="#a6c8ff"/>
      <stop offset=".46" stop-color="#5b97ff"/>
      <stop offset="1" stop-color="#005cff"/>
    </linearGradient>
    <linearGradient id="linear-gradient11" x1="820.49" y1="668.95" x2="867.5" y2="587.52" gradientUnits="userSpaceOnUse">
      <stop offset="0" stop-color="#001d6c" stop-opacity=".48"/>
      <stop offset="1" stop-color="#001d6c" stop-opacity=".38"/>
    </linearGradient>
    <linearGradient id="linear-gradient12" x1="-3595.19" y1="192.83" x2="-3595.19" y2="209.94" gradientTransform="translate(3947.05)" xlink:href="#linear-gradient"/>
    <linearGradient id="linear-gradient13" x1="350.9" y1="775.93" x2="456.32" y2="775.93" gradientUnits="userSpaceOnUse">
      <stop offset="0" stop-color="#262626"/>
      <stop offset="1" stop-color="#525252"/>
    </linearGradient>
    <linearGradient id="linear-gradient14" x1="350.94" y1="896.86" x2="391.09" y2="896.86" gradientUnits="userSpaceOnUse">
      <stop offset="0" stop-color="#525252"/>
      <stop offset="1" stop-color="#262626"/>
    </linearGradient>
    <linearGradient id="linear-gradient15" x1="350.94" y1="913.79" x2="386.04" y2="913.79" xlink:href="#linear-gradient13"/>
    <linearGradient id="linear-gradient16" y1="862.8" y2="862.8" xlink:href="#linear-gradient14"/>
    <linearGradient id="linear-gradient17" x1="350.94" y1="879.73" x2="386.04" y2="879.73" xlink:href="#linear-gradient13"/>
    <linearGradient id="linear-gradient18" y1="829.13" y2="829.13" xlink:href="#linear-gradient14"/>
    <linearGradient id="linear-gradient19" x1="350.94" y1="846.06" x2="386.04" y2="846.06" xlink:href="#linear-gradient13"/>
    <linearGradient id="linear-gradient20" y1="795.1" y2="795.1" xlink:href="#linear-gradient14"/>
    <linearGradient id="linear-gradient21" x1="350.94" y1="812.03" x2="386.04" y2="812.03" xlink:href="#linear-gradient13"/>
    <linearGradient id="linear-gradient22" x1="811.34" y1="593.09" x2="882.98" y2="593.09" gradientUnits="userSpaceOnUse">
      <stop offset="0" stop-color="#a6c8ff"/>
      <stop offset="1" stop-color="#0f62fe"/>
    </linearGradient>
    <linearGradient id="linear-gradient23" x1="811.34" y1="607.42" x2="847.16" y2="607.42" gradientUnits="userSpaceOnUse">
      <stop offset="0" stop-color="#0f62fe"/>
      <stop offset="1" stop-color="#a6c8ff"/>
    </linearGradient>
    <linearGradient id="linear-gradient24" x1="847.16" y1="607.42" x2="882.98" y2="607.42" xlink:href="#linear-gradient22"/>
    <linearGradient id="linear-gradient25" y1="564.43" y2="564.43" xlink:href="#linear-gradient22"/>
    <linearGradient id="linear-gradient26" y1="578.76" y2="578.76" xlink:href="#linear-gradient23"/>
    <linearGradient id="linear-gradient27" x1="847.16" y1="578.76" x2="882.98" y2="578.76" xlink:href="#linear-gradient22"/>
    <linearGradient id="linear-gradient28" x1="208.05" y1="251.57" x2="272.75" y2="251.57" gradientUnits="userSpaceOnUse">
      <stop offset="0" stop-color="#0062ff"/>
      <stop offset=".07" stop-color="#0063f3" stop-opacity=".93"/>
      <stop offset=".2" stop-color="#0166e0" stop-opacity=".83"/>
      <stop offset=".34" stop-color="#0168d1" stop-opacity=".75"/>
      <stop offset=".48" stop-color="#026ac5" stop-opacity=".68"/>
      <stop offset=".63" stop-color="#026cbd" stop-opacity=".64"/>
      <stop offset=".79" stop-color="#026cb8" stop-opacity=".61"/>
      <stop offset="1" stop-color="#036db7" stop-opacity=".6"/>
    </linearGradient>
    <linearGradient id="linear-gradient29" x1="236.81" y1="270.11" x2="301.51" y2="270.11" gradientUnits="userSpaceOnUse">
      <stop offset="0" stop-color="#0062ff"/>
      <stop offset=".18" stop-color="#0055eb"/>
      <stop offset=".42" stop-color="#004bdb"/>
      <stop offset=".68" stop-color="#0045d1"/>
      <stop offset="1" stop-color="#0043ce"/>
    </linearGradient>
  </defs>
  <g class="st71">
    <g id="Layer_1">
      <g>
        <path class="st1" d="M360.13,154.95"/>
        <polyline class="st1" points="521.91 832.57 865.47 633.95 379.67 353.8"/>
        <polygon class="st57" points="524.93 847.44 444 801 524.65 754.17 605.24 800.82 524.93 847.44"/>
        <path class="st57" d="M528.52,435.57c-8.15,4.7-21.37,4.7-29.53,0-8.15-4.7-8.15-12.33,0-17.03,8.15-4.7,21.37-4.7,29.53,0,8.15,4.7,8.15,12.33,0,17.03Z"/>
        <path class="st57" d="M416.36,364.73c-13.59,7.06-36.14,6.11-50.36-2.12-14.22-8.23-14.74-20.62-1.14-27.68,13.59-7.06,36.14-6.11,50.36,2.12,14.22,8.23,14.74,20.62,1.14,27.68Z"/>
        <path class="st57" d="M693.35,533.8c-8.15,4.7-21.37,4.7-29.53,0-8.15-4.7-8.15-12.33,0-17.03,8.15-4.7,21.37-4.7,29.53,0,8.15,4.7,8.15,12.33,0,17.03Z"/>
        <path class="st57" d="M756.13,715.72c-8.15,4.7-21.37,4.7-29.53,0-8.15-4.7-8.15-12.33,0-17.03,8.15-4.7,21.37-4.7,29.53,0,8.15,4.7,8.15,12.33,0,17.03Z"/>
      </g>
      <g>
        <polygon class="st97" points="729.04 783.22 414.88 973.42 391.6 973.43 391.6 579.11 729.04 783.22"/>
        <g>
          <polygon class="st80" points="705.75 783.43 391.6 973.62 77.45 783.41 391.6 592.99 705.75 783.43"/>
          <polygon class="st73" points="705.75 769.33 391.6 959.53 77.45 769.33 391.6 579.11 705.75 769.33"/>
          <polygon class="st70" points="390.38 974.68 76.23 784.47 76.23 770.39 390.38 960.59 390.38 974.68"/>
          <polygon class="st87" points="705.75 783.43 694.13 790.47 694.12 776.37 705.75 769.33 705.75 783.43"/>
        </g>
        <polygon class="st70" points="705.75 769.33 624.22 818.59 577.76 818.62 647.62 776.38 592.25 742.86 452.68 742.86 519.59 698.87 589.42 698.88 705.75 769.33"/>
        <polygon class="st70" points="403.25 741.1 275.26 818.59 205.44 818.63 143.12 754.1 286.91 670.66 403.25 741.1"/>
        <polygon class="st79" points="330.53 658.33 330.53 742.87 263.64 702.7 263.62 618.08 330.53 658.33"/>
        <path class="st70" d="M527.16,773.52s5.35.61,9.33-1.78c3.98-2.4,14.75-6.96,14.75-6.96l23.6,1.11v-9.84l-21.89-.83-8.33-1.32-17.46,19.62Z"/>
        <path class="st70" d="M551.39,787.43s5.35.61,9.33-1.78c3.98-2.4,14.12-6.69,14.12-6.69v-10.96l-5.98-.19-17.46,19.62Z"/>
        <g>
          <path class="st34" d="M627.29,597.21l-29.96-18.14c-2.8-1.69-6-1.45-8.45.12l-3.95,2.38h0c-2.11,1.27-3.7,3.51-4.06,6.36l-6.63,52.18,45.43,27.51,4.13-2.5,7.53-59.27c.44-3.48-1.16-6.89-4.06-8.65Z"/>
          <polygon class="st77" points="528.82 667.62 574.25 640.11 619.68 667.62 574.25 695.13 528.82 667.62"/>
          <polygon class="st77" points="528.82 667.62 528.82 672.62 574.25 700.13 574.25 695.13 528.82 667.62"/>
          <polygon class="st34" points="574.25 695.13 623.82 665.12 623.82 670.12 574.25 700.13 574.25 695.13"/>
          <path class="st77" d="M574.25,640.11l6.63-52.18c.78-6.11,7.22-9.44,12.32-6.36l29.96,18.14c2.9,1.75,4.5,5.17,4.06,8.65l-7.53,59.27-45.43-27.51Z"/>
          <polygon class="st77" points="528.82 672.62 528.82 722.64 530.88 723.88 530.88 673.87 528.82 672.62"/>
          <polygon class="st34" points="532.95 722.63 530.88 723.88 530.88 673.87 532.95 675.12 532.95 722.63"/>
          <polygon class="st77" points="572.19 698.88 572.19 748.89 574.25 750.14 574.25 700.13 572.19 698.88"/>
          <polygon class="st34" points="576.32 748.89 574.25 750.14 574.25 700.13 576.32 698.88 576.32 748.89"/>
          <polygon class="st77" points="619.68 672.62 619.68 720.13 621.75 721.38 621.75 671.37 619.68 672.62"/>
          <polygon class="st34" points="623.81 720.13 621.75 721.38 621.75 671.37 623.81 670.12 623.81 720.13"/>
        </g>
        <g>
          <path class="st36" d="M546.27,742.88c.19-2.47-.83-5.05-3.42-3.75-2.01,1-4.51,2.7-3.82,7.89.72,5.4-1.62,6-4.45,9.84-2.97,4.04-15.62,11.32-11.07,14.9,2.56,2.02,6.02,1.86,8,.74,5.25-2.98,11.99-7.33,17.02-10.4,2.33-1.42.87-5.48-.45-7.49-1.95-2.96-1.95-9.85-1.81-11.74Z"/>
          <path class="st36" d="M570.49,756.79c.19-2.47-.83-5.05-3.42-3.75-2.01,1-4.51,2.7-3.82,7.89.72,5.4-1.62,6-4.45,9.84-2.97,4.04-15.62,11.32-11.07,14.9,2.56,2.02,6.02,1.86,8,.74,5.25-2.98,11.99-7.33,17.02-10.4,2.33-1.42.87-5.48-.45-7.49-1.95-2.96-1.95-9.85-1.81-11.74Z"/>
          <path class="st10" d="M546.81,751.61s.75,2.51,1.8,3.62c1.42,1.49,2.68,5.76.18,7.69-1.84,1.43-4.06,2.78-5.48,2.95-3.21.38-2.77,2.53-5.35,4.29-2.67,1.82-5.45,4.19-10.81,3.37-5.46-.84-6.18-4.41-3.82-6.89,1.86-1.95,8.91-7.42,11.92-11.75,3.01-4.34,3.98-3.71,6.05-1.82,2.5,2.28,4.12,1.6,5.51-1.45Z"/>
          <path class="st10" d="M571.05,765.52s.75,2.51,1.8,3.62c1.42,1.49,2.68,5.76.18,7.69-1.84,1.43-4.06,2.78-5.48,2.95-3.21.38-2.77,2.53-5.35,4.29-2.67,1.82-5.45,4.19-10.81,3.37-5.46-.84-6.18-4.41-3.82-6.89,1.86-1.95,8.91-7.42,11.92-11.75,3.01-4.34,3.98-3.71,6.05-1.82,2.5,2.28,4.12,1.6,5.51-1.45Z"/>
          <path class="st36" d="M559.74,619.86c.14-11.95,2.8-24.36,5.58-32.52,2.65-7.78,5.42-11.97,8.17-13.53,3.39-1.93,5.82.59,5.34,5.45-1.72,17.38-10.25,40.72-13.52,43.68-1.63,1.48-3.05,2.53-4.61,1.16-1.17-1.02-.97-3.31-.96-4.24Z"/>
          <path class="st78" d="M570.32,655.96c1.79-9.39,4.43-22.78,4.43-22.78,0-2.54-8.61-33.6-6.49-50.5.57-4.56,3.6-8.7,6.11-9.3,5.2-1.24,17.77-3.28,21.67-.95,7.4,4.42,20.74,12.25,22.03,16.31,1.31,4.1-.78,8.19-1.64,9.79,0,0-7,34.63-7,47.67,0,0,6.61,16.12,6.61,22.34,0,2.43-3.54,6.14-9.26,6.89-7.8,1.02-12.02.28-15.92-2.03-3.9-2.31-16.21-8.58-18.59-11.12-2.38-2.54-2.22-4.93-1.96-6.29Z"/>
          <path class="st20" d="M609.43,646.19s4.47,10.5,5.97,16.99c0,0,1.28,5.6,1.2,9.17-.1,4.64-.86,9.09-4.27,12.04-3.95,3.42-12.28,7.57-16.68,9.38-4.08,1.67-15.83,7.21-23.08,9.52.82,3.48,1.63,7.1,1.69,11.23.09,5.96-.44,39.21-1.2,46.89-.21,2.07-3.15,3.37-6.38,3.13-3.88-.29-6.13-2.47-6.32-3.83-1.8-12.86-5.07-53.39-5.8-58.82-.56-4.16,1.62-9.1,3.65-11.37,1.33-1.49,3.13-3.33,5.17-5.31-4.11,1.24-9.97,2.87-15.6,4.31.78,3.4,2.11,7.49,2.17,11.51.09,5.96.21,38.38-.55,46.05-.21,2.07-3.5,3.45-6.84,3.04-3.66-.44-5.66-2.42-5.85-3.78-1.8-12.86-4.65-51.5-5.86-56.37-.86-3.47-.17-7.08,1.4-10.05,2.17-4.1,19.11-16.97,25.74-21.05,3.25-2,8.27-5.23,13.32-7.65,1.66-8.62,3.54-18.15,3.54-18.15l34.6,13.12Z"/>
          <path class="st15" d="M563.09,685.38c-8.19,2.46-15.39,4.24-15.39,4.24,0,0,1.97,7.07,2.11,10.17.19,4.58.17,10.24.13,14.26-.06,5.9-.09,26.42-.62,33.13-.14,1.8-2.65,3.26-6.12,3.1,0,0,4.17-31.97-4.93-62.74-2.34-7.92,29.8-16.76,40.79-16.04,0,0-6.03,4.85-7.98,6.55-2.04,1.77-7.98,7.32-7.98,7.32Z"/>
          <path class="st92" d="M616.43,598.52s-2.74,17.55-4.09,22.79c-.88,3.44-3.97,16.81-3.97,16.81,0,2.27,4.42,16.72,4.42,16.72,0,0-10.49,6.1-25.84,1.76-12.98-3.66-14.99-9.18-14.99-9.18,0,0,1.17-8.74,1.07-14.71-.06-3.61-3.06-21.81-3.59-26.5,0,0-5.09-.19-8.15-2.61.67-4.62,2.21-10.52,3.8-15.58,2.66-8.43,5.79-13.41,8.86-14.52,4.27-1.54,17.48-3.5,21.61-1.32,9.41,4.95,20.15,12.41,21.93,15.44,0,0,1.04.96.98,4.58-.03,1.67-2.04,6.32-2.04,6.32Z"/>
          <g>
            <path class="st36" d="M586.26,570.09l12.43-3.99s-.2,3.16-.2,4.51c0,3.01,2.29,3.69,2.64,5.86.37,2.3-4.55,3.39-9.04,3.23-3.44-.12-6.49-2.12-7.26-3.93-.86-2.03,1.47-3.22,1.47-3.55,0-.6-.05-2.12-.05-2.12Z"/>
            <path class="st36" d="M578.91,548.8c.11-7.77,6.01-14.07,13.42-14.07,7.41,0,13.42,6.3,13.42,14.07,0,9.45-7.04,17.3-7.04,17.3,0,0-11.96,3.83-13.33,4.29-3.6,1.2-4.69-.99-5.03-3.09-.74-4.63-1.56-9.38-1.43-18.5Z"/>
          </g>
          <path class="st64" d="M580.94,535.12l17.07-.39c4.51,0,7.74,3.84,7.74,8.57,0,0-.01,4.89-.01,6.51,0,1.14-.6,4.59-1.61,7.04-2.47,6.02-5.43,9.24-5.43,9.24,0,0-1.02-3.79-1.01-3.94,0,0,2.06-2.96,2.28-3.67.36-1.17.42-3.27.42-4.63,0-.73-.41-1.79-1.46-1.16-.57.34-.96,1.05-1.24,1.82-.19.54-.94.5-1.05-.07-.56-2.71-1.42-6.26-4.32-8.43-2.34-1.75-6.16-2.04-9.53-1.46-2.36.4-3.7,2.13-3.7,2.13v-9.64c0-1.07.83-1.94,1.85-1.94Z"/>
          <path class="st18" d="M612.8,654.84s-4.52,2.85-12.93,3.34c-4.71.27-12.9-.9-16.82-2.84-3.91-1.94,11.59-13.33,14.26-18.57,2.38-4.66,6.79-28.28,7.25-33.32.4-4.34,3.4-3.73,3.4-3.73l4.58,20.76s-4.08,15.8-4.17,17.64c-.13,2.78,3.14,12.17,4.42,16.72Z"/>
          <path class="st36" d="M604.27,647.59c-2.66-14.99-3.2-48.22,7.47-59.41,1.72-1.8,3.98-2.3,5.17-1.19.42.39,1.57,1.64,1.57,4.18,0,26.42-3.07,43.34-5.66,54.17-.71,2.98-3.37,6.12-4.97,6.34-2.43.35-3.19-1.95-3.57-4.1Z"/>
          <path class="st92" d="M617.26,618.19s-2.93,1.49-6.97,1.13c-4.27-.38-7.38-1.5-7.38-1.5,0,0,.82-12.62,2.07-16.85,2.79-9.48,5.91-16.95,10.21-15.11,3.82,1.63,3.38,4.62,3.3,10.71-.1,7.38-1.23,21.63-1.23,21.63Z"/>
          <g class="st17">
            <path class="st14" d="M586.26,570.09l12.43-3.99s-.05,1.15-.14,2.46c-.17,2.54.02,3.62.6,4.52,0,0-2.59-2.45-5.98-2.26-1.75.1-6.88,1.44-6.88,1.44,0-.72-.03-2.17-.03-2.17Z"/>
          </g>
        </g>
        <g>
          <path class="st34" d="M168.19,600.42l29.96-18.14c2.8-1.69,6-1.45,8.45.12l3.95,2.38h0c2.11,1.27,3.7,3.51,4.06,6.36l6.63,52.18-45.43,27.51-4.13-2.5-7.53-59.27c-.44-3.48,1.16-6.89,4.06-8.65Z"/>
          <polygon class="st77" points="266.66 670.83 221.23 643.32 175.8 670.83 221.23 698.34 266.66 670.83"/>
          <polygon class="st77" points="266.66 670.83 266.66 675.83 221.23 703.34 221.23 698.34 266.66 670.83"/>
          <polygon class="st34" points="221.23 698.34 171.66 668.33 171.66 673.33 221.23 703.34 221.23 698.34"/>
          <path class="st77" d="M221.23,643.32l-6.63-52.18c-.78-6.11-7.22-9.44-12.32-6.36l-29.96,18.14c-2.9,1.75-4.5,5.17-4.06,8.65l7.53,59.27,45.43-27.51Z"/>
          <polygon class="st77" points="266.66 675.83 266.66 725.85 264.6 727.09 264.6 677.08 266.66 675.83"/>
          <polygon class="st34" points="262.53 725.84 264.6 727.09 264.6 677.08 262.53 678.33 262.53 725.84"/>
          <polygon class="st77" points="223.29 702.09 223.29 752.1 221.23 753.35 221.23 703.34 223.29 702.09"/>
          <polygon class="st34" points="219.16 752.1 221.23 753.35 221.23 703.34 219.16 702.09 219.16 752.1"/>
          <polygon class="st77" points="175.8 675.83 175.8 723.34 173.73 724.59 173.73 674.58 175.8 675.83"/>
          <polygon class="st34" points="171.67 723.34 173.73 724.59 173.73 674.58 171.67 673.33 171.67 723.34"/>
        </g>
        <g>
          <path class="st34" d="M256.35,742.36c-.19-2.47.83-5.05,3.42-3.75,2.01,1,4.51,2.7,3.82,7.89-.72,5.4,1.62,6,4.45,9.84,2.97,4.04,15.62,11.32,11.07,14.9-2.56,2.02-6.02,1.86-8,.74-5.25-2.98-11.99-7.33-17.02-10.4-2.33-1.42-.87-5.48.45-7.49,1.95-2.96,1.95-9.85,1.81-11.74Z"/>
          <path class="st34" d="M228.21,759.55c-.19-2.47.83-5.05,3.42-3.75,2.01,1,4.51,2.7,3.82,7.89-.72,5.4,1.62,6,4.45,9.84,2.97,4.04,15.62,11.32,11.07,14.9-2.56,2.02-6.02,1.86-8,.74-5.25-2.98-11.99-7.33-17.02-10.4-2.33-1.42-.87-5.48.45-7.49,1.95-2.96,1.95-9.85,1.81-11.74Z"/>
          <path class="st77" d="M265.65,674.26c-5-4.27-14.3-11.71-20.93-15.79-4.41-2.72-12.04-7.76-18.65-9.85-1.54-.49-2.43-3.76-3.13-5.73l-39.35,11.92c-4.11,11.36-4.17,14.67-3.96,20.07.18,4.64,1.94,8.87,6.08,11.94,9.82,7.3,33.88,16.87,41.13,19.17-.82,3.48-1.36,7.38-1.42,11.52-.09,5.96,1.05,38.68,1.89,46.35.04.37.49,2.35,4.5,2.24,2.77-.07,4.75-1.98,4.86-2.87,1.53-12.89,6.05-51.56,7.05-56.48,1.59-7.86-1.31-10.97-3.34-13.24-2.95-3.3-8.14-8.27-13.35-12.81,4.24,1.49,20.03,6.74,27.89,8.41-.78,3.4-1.29,7.2-1.35,11.22-.09,5.96,1.31,38.85,2.02,46.53.07.76.7,2.52,4.02,2.43,2.99-.09,5.23-1.71,5.42-3.06,1.8-12.86,5.88-51.72,6.83-56.65,1.28-6.66.54-9.54-6.21-15.31Z"/>
          <path class="st11" d="M255.75,751.23s-.75,2.51-1.8,3.62c-1.42,1.49-2.68,5.76-.18,7.69,1.84,1.43,4.06,2.78,5.48,2.95,3.21.38,2.77,2.53,5.35,4.29,2.67,1.82,5.45,4.19,10.81,3.37,5.46-.84,6.18-4.41,3.82-6.89-1.86-1.95-8.91-7.42-11.92-11.75-3.01-4.34-3.98-3.71-6.05-1.82-2.5,2.28-4.12,1.6-5.51-1.45Z"/>
          <path class="st11" d="M227.6,768.47s-.75,2.51-1.8,3.62c-1.42,1.49-2.68,5.76-.18,7.69,1.84,1.43,4.06,2.78,5.48,2.95,3.21.38,2.77,2.53,5.35,4.29s5.45,4.19,10.81,3.37c5.46-.84,6.18-4.41,3.82-6.89-1.86-1.95-8.91-7.42-11.92-11.75s-3.98-3.71-6.05-1.82c-2.5,2.28-4.12,1.6-5.51-1.45Z"/>
          <path class="st9" d="M255.75,751.23s-.75,2.51-1.8,3.62c-1.42,1.49-2.68,5.76-.18,7.69,1.84,1.43,4.06,2.78,5.48,2.95,3.21.38,2.77,2.53,5.35,4.29,2.67,1.82,5.45,4.19,10.81,3.37,5.46-.84,6.18-4.41,3.82-6.89-1.86-1.95-8.91-7.42-11.92-11.75-3.01-4.34-3.98-3.71-6.05-1.82-2.5,2.28-4.12,1.6-5.51-1.45Z"/>
          <path class="st9" d="M227.6,768.47s-.75,2.51-1.8,3.62c-1.42,1.49-2.68,5.76-.18,7.69,1.84,1.43,4.06,2.78,5.48,2.95,3.21.38,2.77,2.53,5.35,4.29s5.45,4.19,10.81,3.37c5.46-.84,6.18-4.41,3.82-6.89-1.86-1.95-8.91-7.42-11.92-11.75s-3.98-3.71-6.05-1.82c-2.5,2.28-4.12,1.6-5.51-1.45Z"/>
          <path class="st34" d="M234.4,627.37c-.81-13.03-4.19-23.41-6.48-29.67-2.61-7.13-5.28-13.07-8.12-15.13-3.08-2.24-4.8-1.11-5.13,2.44-.54,5.78,8.87,39.28,14.42,44.1,3.26,2.83,5.44.39,5.3-1.74Z"/>
          <path class="st17" d="M227.03,680.7c10.61,4.29,27.89,8.41,27.89,8.41-2.24,9.54-1.05,17.7-.97,25.23.06,5.9,1.36,28.14,1.64,32.44.11,1.8,2.3,3.22,6.12,2.2,0,0-6.74-31.11,2.37-61.87,2.34-7.92-29.8-16.76-40.79-16.04-.87.06,3.75,9.63,3.75,9.63Z"/>
          <path class="st78" d="M229.75,601.63s-3.66-9.58-5.31-12.67c-1.96-3.66-3.22-6.88-6.65-7.55,0,0-11.85-1.23-14.25-1.41-1.89-.14-4.65.01-7.21,1.45-7.76,4.36-14.06,8.56-18.28,11.85-6.3,4.91,11.49,39.7,11.49,44.61,0,3.88-4.52,12.67-5.94,16.89-.95,2.81,2.39,6.64,7.29,7.84,9.27,2.28,22.56-2.47,27.91-7.71,4.78-4.69,4.15-12.06,4.15-12.06-1.05-5.65-3.61-10.5-3.99-13.94-.64-5.86-1.41-12.42.62-14.55,2.62-2.75,3.59-6.28,3.36-9.76.13-.02,6.17-1.03,6.82-3.01Z"/>
          <path class="st34" d="M203.77,580.18"/>
          <path class="st12" d="M183.6,654.81c-.34.93-.56,3.5,3.09,5.96,4.86,3.26,11.34,2.68,15.07,1.95,2.87-.56,7.12-1.59,11.03-3.53,3.91-1.94-12.54-10.64-15.21-15.88-2.38-4.66,4.29-21.34,0-21.79-5.68-.61-5.59-4.6-6.53-8.46-1.04-4.22-2.48-8.23-2.48-8.23l-1.82,14.16-.71,8.53s3.49,8.6,3.57,10.44c.13,2.78-4.48,12.62-6.03,16.86Z"/>
          <path class="st34" d="M190.22,654.8c3.57-12.33-.08-32.54-2.73-52.35-.36-2.72-1.86-6.4-4.7-8.46-3.08-2.24-5.2-1.19-5.87,2.05-.82,3.94,2.53,38.71,5.19,52.43.68,3.51,1.96,6.05,3.25,7.26,2.16,2.04,4.27,1.11,4.86-.93Z"/>
          <path class="st78" d="M177.79,618.55s.24,3.07,6.33,1.89c6.66-1.29,6.1-3.65,6.1-3.65-.53-4.64-1.09-8.79-2.37-14.31-1.09-4.7-4.17-9.01-6.76-9.62-2.21-.51-4.49.49-4.38,4.8.09,3.58.24,13.96,1.09,20.89Z"/>
          <g>
            <path class="st34" d="M215.97,557.75c-.11-7.77-6.01-14.07-13.42-14.07s-13.42,6.3-13.42,14.07c0,9.45,7.04,17.3,7.04,17.3,0,0,11.96,3.81,13.33,4.29,3.58,1.26,4.69-.99,5.03-3.09.74-4.63,1.56-9.38,1.43-18.5Z"/>
            <path class="st34" d="M207.57,578.66l-11.39-3.61s.15,3.91.15,5.39c0,2.1-3.7,3.47-3.08,5.65.54,1.9,3.45,3.95,8.37,4.19,2.72.13,6.67-1.7,7.51-3.69.94-2.22-1.61-3.53-1.61-3.89,0-.66.05-4.04.05-4.04Z"/>
            <g class="st17">
              <path class="st16" d="M207.57,578.69l-11.39-3.65s.15,3.91.15,5.39c0,2.1-3.7,3.47-3.08,5.65,0,0,2.48-3.04,6.44-4.23,3.15-.95,7.85-1.18,7.85-1.18,0-.66.03-1.98.03-1.98Z"/>
            </g>
          </g>
          <path d="M223.83,556.99c0-5.25-5.01-5.62-5.29-10.52-.18-3.18-3.89-2.11-5.46-5.7-.75-1.72-2.83-3.3-4.77-3.3-2.82,0-4.83,2.6-4.83,2.6,0,0-3.65-2.64-7.73-2.64-6.12,0-7.54,5.78-10.82,6.22-2.81.37-4.65,3.39-4.91,6.35-.22,2.6.72,5.85-1.15,7.28-1.82,1.4-4.17,1.45-4.18,6.01-.01,4.91,5.06,7.72.93,13.84-1.82,2.7-1.57,10.43,5.25,12.11,3.34.82,5.64-2.28,7.55-2.63,2.83-.52,4.7.4,6.13.29,3.28-.26,5.72-1.82,5.83-5.27.08-2.56-.36-4.82-1.48-5.73-1.97-1.6-2.36-4.89-1.4-6.26,1.6-2.29,1.28-4.23.49-5.84-.86-1.76-.34-3.92,1.34-4.83,1.21-.66,1.53-2.28,1.72-3.88.24-2,1.84-1.69,3.51-1.22,3.88,1.08,4.83-5.63,4.83-5.87.45,2.48,1.79,4.47,4.29,4.39,1.79-.06,2.24,3.97,2.24,5.45,0,8.58-.69,13.8-1.42,18.4-.33,2.09-1.44,4.33-5,3.07-.31-.11-.77-.26-1.93-.64,0,.67-.04,3.23-.04,3.23,0,0,2.06-1.67,3.81-.67,1.81,1.04,3.42,1.95,5.15,1.52,1.2-.29,1.91-.49,2.89-2.5.87-1.78-.89-3.88.99-5.84,3.04-3.18,1.85-7.08,1.73-8.39-.45-4.86,1.74-5.41,1.74-9.05Z"/>
        </g>
        <polygon class="st73" points="333.44 656.56 205.46 734.07 135.64 691.8 263.62 614.3 333.44 656.56"/>
        <polygon class="st80" points="333.44 656.56 333.44 660.09 208.07 736 205.46 734.07 333.44 656.56"/>
        <polygon class="st70" points="205.46 734.07 205.44 818.63 135.59 776.39 135.63 691.83 205.46 734.07"/>
        <polygon class="st80" points="330.54 658.33 333.45 656.56 333.45 741.09 330.54 742.87 330.54 658.33"/>
        <polygon class="st80" points="205.46 734.07 208.37 735.72 208.37 816.79 205.44 818.63 205.46 734.07"/>
        <g>
          <g>
            <polygon class="st79" points="452.68 658.32 452.68 742.86 519.57 702.7 519.59 618.07 452.68 658.32"/>
            <polygon class="st73" points="449.76 656.56 577.75 734.06 647.57 691.8 519.59 614.3 449.76 656.56"/>
            <polygon class="st80" points="449.76 656.56 449.76 660.08 575.14 735.99 577.75 734.06 449.76 656.56"/>
            <polygon class="st91" points="577.75 734.06 577.76 818.62 647.62 776.38 647.58 691.82 577.75 734.06"/>
          </g>
          <polygon class="st80" points="452.68 658.32 449.76 656.56 449.76 741.08 452.68 742.86 452.68 658.32"/>
          <g class="st71">
            <polygon class="st87" points="577.75 734.06 574.84 735.71 574.84 816.78 577.76 818.62 577.75 734.06"/>
          </g>
        </g>
        <path class="st97" d="M313.74,654.2h-14.73v6.21h14.76c2,0,4.1-1.18,4.1-3.17,0-2.2-2.3-3.04-4.13-3.04Z"/>
        <polygon class="st29" points="228.73 690.03 275.27 661.86 240.36 640.72 193.82 668.9 228.73 690.03"/>
        <path class="st89" d="M210.16,673.21s-.02,0-.03.02c0-.02.01-.02.01-.02h.02Z"/>
        <path class="st98" d="M208.4,636.97c-.04.12-.08.24-.13.35,0-.08,0-.15.03-.23.03-.03.07-.08.1-.12Z"/>
        <path class="st22" d="M208.25,637.15s.03-.04.05-.06c-.02.08-.02.15-.03.23-.01.04-.02.08-.02.11v-.28Z"/>
        <polygon class="st67" points="193.82 668.9 193.82 670.66 228.73 691.79 229.21 690.32 193.82 668.9"/>
        <path class="st68" d="M579.92,618.91c.02.11.03.24.04.35.02-.03.03-.06.05-.09-.03-.09-.07-.17-.1-.26Z"/>
        <path class="st89" d="M582.45,669.5s.02,0,.03.02c0-.02-.01-.02-.01-.02h-.02Z"/>
        <path class="st82" d="M564.84,620.05s0,.04-.02.06h.02s0-.04,0-.06Z"/>
        <path class="st73" d="M578.24,600.52"/>
        <path id="SVGID" class="st25" d="M327.29,606.57c1.81-4.46,1.75-28.56-1.53-36.36-3.28-7.8-17.98-8.14-30.95,0-12.97,8.14-1.72,23.49.75,27.95,2.47,4.46.7,7.23,1.19,10.23.49,3,6.21,6.97-.18,9.4-6.14,2.34-7.17,5.74-2.58,8.49,4.6,2.74.33,5.34-2.62,10.57-2.24,3.97,1.23,7.45,2.12,9.16.04-.03.08-.06.13-.08,2.67-1.61,6.99-1.61,9.64,0,.53.32.95.68,1.27,1.07.72-1.76,1.3-4.43-.44-6.65-2.87-3.69-9.06-2.17-1.97-7.8,9.9-7.86,1.56-6.52.99-10.8-.57-4.29,19.43-3.4,24.19-15.16"/>
        <g>
          <path class="st83" d="M305.66,646.71l-1.01,10.22c0,.89-.56,1.78-1.69,2.46-2.26,1.36-5.59,1.36-7.84,0-1.13-.68-1.69-1.57-1.69-2.46l-1.01-10.22h13.24Z"/>
          <path class="st83" d="M293.46,656.66c.15,0,.31-.01.46-.03.46-.07.78-.51.71-.99-.06-.48-.5-.8-.94-.74-.43.06-.86-.05-1.21-.33-.35-.28-.57-.67-.63-1.13-.06-.45.05-.9.31-1.26.26-.36.65-.6,1.08-.66.46-.07.78-.51.71-.99-.07-.48-.5-.8-.95-.74-.87.13-1.65.6-2.18,1.34-.53.74-.76,1.64-.64,2.56.12.91.58,1.72,1.28,2.28.58.46,1.27.7,1.98.7"/>
          <path class="st73" d="M294.41,649.61c2.66,1.6,6.59,1.6,9.25,0,2.66-1.6,2.66-4.21,0-5.81-2.66-1.6-6.59-1.6-9.25,0-2.66,1.6-2.66,4.21,0,5.81"/>
          <path class="st60" d="M294.99,649.15c2.22,1.32,5.83,1.31,8.06-.04,2.23-1.35,2.24-3.51.02-4.84-2.22-1.32-5.83-1.31-8.06.04-2.23,1.35-2.24,3.51-.02,4.83"/>
          <path class="st73" d="M294.97,646.32c2.23-1.35,5.84-1.36,8.06-.04.68.41,1.16.93,1.42,1.45-.26.53-.75,1-1.44,1.42-2.23,1.35-5.84,1.36-8.06.04-.68-.41-1.13-.9-1.39-1.42.26-.53.72-1.03,1.41-1.45"/>
        </g>
        <g>
          <path class="st67" d="M598.48,700.16l-23.3,14.14c.28-.17.63-.15,1.01.08l23.3-14.14c-.38-.23-.74-.25-1.01-.08"/>
          <path class="st67" d="M598.48,700.16l-22.86,13.87-17.38-10.48,23.3-14.14,17.96,10.82c-.39-.23-.74-.25-1.01-.08"/>
          <path class="st95" d="M558.23,707.59v.62s17.95,10.82,17.95,10.82c-.42-.25-.79-.71-1.07-1.27l-16.88-10.18Z"/>
          <path class="st73" d="M558.24,704.16c.27.16.4,1.1.4,1.96,0,.86-.14,1.63-.41,1.47l16.88,10.18,1.07.65c-.54-.32-.96-1.35-.96-2.29,0-.95.43-1.46.97-1.14l-1.07-.64-16.88-10.18Z"/>
          <path class="st95" d="M558.24,703.55v.61s16.88,10.18,16.88,10.18c.28-.21.66-.21,1.07.04l-17.95-10.83Z"/>
          <path class="st23" d="M576.19,714.98c-.54-.32-.97.19-.97,1.14,0,.95.42,1.97.96,2.29.53.32.96-.19.96-1.14,0-.95-.42-1.98-.95-2.3"/>
          <path class="st95" d="M576.19,714.37c-.41-.25-.79-.24-1.07-.04l1.07.64c.53.32.95,1.35.95,2.3,0,.95-.43,1.45-.96,1.14l-1.07-.65c.28.55.65,1.01,1.07,1.26.87.53,1.58-.1,1.58-1.38,0-1.29-.7-2.75-1.57-3.28"/>
          <path class="st29" d="M576.19,714.37l23.3-14.14c.87.53,1.57,1.99,1.57,3.28,0,.72-.23,1.24-.58,1.45l-23.3,14.14c.35-.22.58-.73.58-1.46,0-1.29-.7-2.75-1.57-3.28"/>
        </g>
        <g>
          <g>
            <path id="SVGID1" data-name="SVGID" class="st87" d="M613.95,698.08l8.98-5.58v-.25s0,.25,0,.25c.34-.21.51-.48.51-.75l.09-.84c0,.27-.11.36-.45.57h0s-9.14,5.59-9.14,5.59c-.68.42-1.78.42-2.47.02l-18.48-11.04c-.34-.2-.56-.25-.57-.52l.06.79c0,.27.17.53.51.74l18.48,11.04c.68.41,1.79.4,2.47-.02"/>
            <g class="st76">
              <polygon class="st87" points="616.51 704.71 590.83 685.94 599.48 673.02 625.17 691.79 616.51 704.71"/>
            </g>
          </g>
          <path class="st73" d="M623.02,691.72c.68-.42.68-1.08,0-1.49l-18.48-11.04c-.68-.41-1.78-.4-2.47.02l-9.14,5.59c-.68.42-.68,1.08,0,1.49l18.48,11.04c.68.41,1.79.4,2.47-.02l9.14-5.59Z"/>
          <g>
            <path id="SVGID3" data-name="SVGID" class="st24" d="M621.56,690.67c.11-.07.11-.18,0-.25l-17.15-10.24c-.11-.07-.3-.07-.41,0l-9.14,5.59c-.11.07-.11.18,0,.25l17.15,10.24c.11.07.3.07.41,0l9.14-5.59Z"/>
            <g class="st74">
              <polygon class="st95" points="621.75 690.47 616.98 699.22 594.68 685.98 599.44 677.23 621.75 690.47"/>
            </g>
          </g>
        </g>
        <polygon class="st97" points="228.73 691.79 275.27 691.87 321.72 663.64 275.22 663.64 228.73 691.79"/>
        <polyline class="st97" points="568.16 685.6 592.78 685.6 593.52 685.16 581.43 678.76"/>
        <path class="st34" d="M185.6,655.9c6.78,6.35,27.32,15.15,28.89,15.74,1.79.67,2.23-.77,2.32-1.7.12-1.32-.59-3.87-2.25-5.39-3.59-3.29-18.6-17.49-29.1-20.12-1.36-.34-2.99-.25-3.31,3.23-.34,3.67,2.62,7.47,3.46,8.25Z"/>
        <path class="st34" d="M214.47,664.56c-.68-.35-2.01-1.05-2.54.82-.44,1.56.29,3.65.94,4.62.74,1.1,1.75,2.42,3.14,3.52,2.3,1.82,4.67,2.06,4.67,2.06,0,0,1.84,2.57,3.14,5.19.59,1.19,1.56.72,1.4.17-.2-.68-1.12-4.03-1.42-5.2-.03-.13.11-.22.21-.14,0,0,1.27.96,1.61,1.37.52.64,1.58,2.94,1.58,2.94.58,1.36,1.74,1.07,1.65.69-.2-.84-.68-3.1-.95-3.57-.31-.53-1.09-2.2-1.09-2.2-.03-.06.05-.12.09-.07,0,0,1.02.71,1.86,1.58.62.63.89.77,1.25,1.74.47,1.27,1.67.69,1.53.31-.3-.82-.59-1.96-1.01-2.62-.31-.49-1.41-1.75-1.41-1.75-.05-.07.03-.17.11-.13,0,0,1.53.81,2.09,1.06,1.46.65,2.28-.11,1.89-.43-1.74-1.43-5.59-4.98-7.77-6.07-1.74-.87-8.65-2.7-10.96-3.88Z"/>
        <path class="st34" d="M229.33,629.28c6.78,6.35,27.32,15.15,28.89,15.74,1.79.67,2.23-.77,2.32-1.7.12-1.32-.59-3.87-2.25-5.39-3.59-3.29-18.6-17.49-29.1-20.12-1.36-.34-2.99-.25-3.31,3.23-.34,3.67,2.62,7.47,3.46,8.25Z"/>
        <path class="st34" d="M269.44,642.26c-1.69-.68-5.1-1.67-5.98-2.04-1.38-.59-4.06-1.42-4.75-2.07-.99-.93-3.05-1.14-3.16,1.38-.08,1.82.86,4.02,1.93,4.96.46.41,1.63.98,1.63.98,0,0,.75,3.69,1.58,5.03.76,1.24,2.44,2.97,4.12,3.95.21.12.87-.87.36-1.98-.36-.78-.76-.5-2.01-2.41-1.25-1.91,2.25-.85,2.9-.5.77.42,2.32,1.23,2.86,2.02.4.58,1.19,2.05,1.46,2.56.68,1.29,1.94.3,1.81-.02-.27-.69-1-2.22-1.69-3.42-.38-.67-.82-1.19-1-1.51-.03-.05.03-.1.07-.06,0,0,1.47,1.08,1.89,1.51.63.66,1.35,1.56,1.76,2.48.54,1.24,1.85.59,1.71.11-.24-.8-.91-2.25-1.83-3.47-.76-1-1.56-1.88-1.9-2.33-.03-.04.02-.09.06-.06,0,0,1.89,1.36,2.43,1.91.51.52,1.65,1.6,2.08,2.29.61.98,1.89.35,1.64-.15-.79-1.58-3.01-3.97-3.01-3.97,0,0-.17-1.59-.52-1.93-2.05-1.99-3.17-2.76-4.44-3.27Z"/>
        <polygon class="st87" points="275.22 663.64 228.73 691.79 240.4 656.56 286.85 628.37 275.22 663.64"/>
        <polygon class="st67" points="227.25 690.9 239.05 655.3 240.4 656.56 228.73 691.79 227.25 690.9"/>
        <polygon class="st67" points="239.05 655.3 285.68 627.02 286.86 628.34 240.37 656.56 239.05 655.3"/>
        <polygon class="st29" points="554.51 690.07 507.97 661.89 542.88 640.76 589.42 668.93 554.51 690.07"/>
        <polygon class="st67" points="589.42 668.93 589.42 670.7 554.51 691.83 554.02 690.36 589.42 668.93"/>
        <path class="st36" d="M609.84,650.5c-7.26,6.98-33.27,18.45-34.69,18.98-.92.34-1.73-.18-1.97-1.26-.26-1.15-.04-3.55,1.5-5.22,3.28-3.56,23.53-19.65,35.03-23.77,1.83-.66,3.28.73,3.4,3.15.2,3.99-2.21,7.11-3.27,8.13Z"/>
        <path class="st36" d="M575.44,662.24c.71-.36,2.13-.83,2.61,1.19.46,1.93-.97,4.65-2.1,5.77-.97.96-1.17,2.35-2.62,3.5-2.39,1.9-4.86,2.15-4.86,2.15,0,0-1.91,2.67-3.26,5.4-.61,1.24-1.62.75-1.45.17.21-.71,1.16-4.19,1.47-5.41.03-.13-.11-.23-.21-.14,0,0-1.32.99-1.67,1.43-.54.67-1.65,3.05-1.65,3.05-.6,1.41-1.81,1.12-1.72.71.2-.88.7-3.22.99-3.71.32-.55,1.13-2.29,1.13-2.29.03-.06-.05-.12-.09-.07,0,0-1.06.74-1.93,1.64-.64.66-.93.8-1.3,1.81-.49,1.32-1.74.71-1.59.32.31-.85.62-2.04,1.05-2.73.32-.51,1.47-1.82,1.47-1.82.06-.08-.03-.18-.11-.13,0,0-1.59.84-2.17,1.1-1.52.67-2.37-.11-1.97-.44,1.81-1.48,5.81-5.17,8.08-6.32,1.8-.91,9.5-3.94,11.91-5.17Z"/>
        <g>
          <path class="st36" d="M563.84,624.2c-10.59,8.32-27.95,13.64-29.43,14.13-1.79.6-2.05-.82-2.23-1.69-.23-1.11.57-3.98,2.34-5.42,3.61-2.95,20.47-16.67,30-19,1.86-.46,3.11.42,3.43,2.7s-.67,6.58-4.11,9.28Z"/>
          <path class="st36" d="M523.38,636.17c1.67-.77,5.08-1.93,5.94-2.35,1.37-.66,4.43-2.03,5.2-2.59,1-.73,2.57-.64,2.68,1.78.08,1.84-.77,3.51-1.75,4.54-.43.45-1.91,1.6-1.91,1.6,0,0-.19,3.52-.96,4.91-.71,1.29-2.33,3.11-3.98,4.18-.21.14-.92-.83-.45-1.98.33-.8.75-.54,1.92-2.53,1.17-1.99-2.31-.75-2.95-.36-.76.47-2.29,1.35-2.8,2.18-.37.61-1.11,2.13-1.36,2.65-.63,1.33-1.94.4-1.83.06.24-.71.91-2.29,1.55-3.53.36-.7.77-1.24.94-1.57.03-.05-.04-.1-.08-.06,0,0-1.43,1.16-1.84,1.62-.6.69-1.3,1.64-1.66,2.59-.49,1.28-1.84.69-1.72.19.2-.82.82-2.31,1.7-3.59.72-1.04,1.49-1.97,1.82-2.44.03-.04-.02-.09-.06-.06,0,0-1.85,1.46-2.37,2.05-.49.55-1.6,1.7-2,2.41-.57,1.01-1.9.45-1.66-.08.72-1.63,2.86-4.15,2.86-4.15,0,0,.1-1.61.44-1.97,1.98-2.11,3.08-2.94,4.33-3.51Z"/>
        </g>
        <g>
          <polygon class="st87" points="508.01 663.67 554.51 691.83 542.83 656.6 496.38 628.4 508.01 663.67"/>
          <polygon class="st67" points="555.99 690.93 544.19 655.33 542.83 656.6 554.51 691.83 555.99 690.93"/>
          <polygon class="st67" points="544.19 655.33 497.56 627.06 496.38 628.38 542.87 656.6 544.19 655.33"/>
        </g>
        <g>
          <g>
            <path id="SVGID5" data-name="SVGID" class="st58" d="M147.18,690.82h0v-1.12h1.66l28.7-17.43c.23-.14.59-.16.79-.03l18.42,11.1h1.67v1.13h0c0,.1-.06.2-.19.28l-30.17,18.31c-.23.14-.59.16-.79.03l-19.96-12.03c-.1-.06-.15-.15-.13-.24"/>
            <g class="st75">
              <polygon class="st58" points="211.61 694.9 160.86 726.9 133.99 680.42 184.74 648.42 211.61 694.9"/>
            </g>
          </g>
          <g>
            <path class="st95" d="M147.38,689.43c-.23.14-.26.36-.06.48l19.96,12.03c.2.12.56.11.79-.03l30.17-18.31c.23-.14.26-.36.06-.48l-19.96-12.03c-.2-.12-.56-.11-.79.03l-30.17,18.31Z"/>
            <polygon class="st73" points="148.36 689.67 167.67 701.31 195.12 684.64 175.81 672.99 148.36 689.67"/>
            <path class="st97" d="M179.14,676.69l10.18,6.15c1.05-1.07,1.17-2.38.25-2.93-1-.6-.87-2.05.28-3.22,1.04-1.06,1.15-2.36.25-2.9-.9-.54-2.48-.13-3.52.93-1.15,1.18-2.9,1.64-3.9,1.03-.91-.55-2.5-.13-3.55.94M187.33,675.16c.57-.58,1.44-.81,1.93-.51s.43,1.01-.14,1.6c-.57.58-1.44.81-1.93.51-.5-.3-.43-1.01.14-1.6"/>
          </g>
          <g>
            <path class="st95" d="M185.53,687.14c.18.11.18.29,0,.4-.18.11-.48.11-.66,0l-8.9-5.37c-.18-.11-.18-.29,0-.4.18-.11.48-.11.66,0l8.9,5.37Z"/>
            <path class="st95" d="M183.75,688.23c.18.11.18.29,0,.4-.18.11-.48.11-.66,0l-8.9-5.37c-.18-.11-.18-.29,0-.4.18-.11.48-.11.66,0l8.9,5.37Z"/>
            <path class="st95" d="M181.11,689.83c.18.11.18.29,0,.4-.18.11-.48.11-.66,0l-6.89-4.15c-.18-.11-.18-.29,0-.4.18-.11.48-.11.66,0l6.89,4.15Z"/>
            <path class="st95" d="M179.33,690.91c.18.11.18.29,0,.4-.18.11-.48.11-.66,0l-8.9-5.37c-.18-.11-.18-.29,0-.4.18-.11.48-.11.66,0l8.9,5.37Z"/>
            <path class="st95" d="M177.55,691.99c.18.11.18.29,0,.4-.18.11-.48.11-.66,0l-8.9-5.37c-.18-.11-.18-.29,0-.4.18-.11.48-.11.66,0l8.9,5.37Z"/>
            <path class="st95" d="M174.91,693.59c.18.11.18.29,0,.4-.18.11-.48.11-.66,0l-6.89-4.15c-.18-.11-.18-.29,0-.4.18-.11.48-.11.66,0l6.89,4.15Z"/>
            <path class="st95" d="M173.13,694.67c.18.11.18.29,0,.4-.18.11-.48.11-.66,0l-8.9-5.37c-.18-.11-.19-.29,0-.4.18-.11.48-.11.66,0l8.9,5.37Z"/>
            <path class="st95" d="M171.35,695.75c.18.11.18.29,0,.4-.18.11-.48.11-.66,0l-8.9-5.37c-.18-.11-.19-.29,0-.4.18-.11.48-.11.66,0l8.9,5.37Z"/>
            <path class="st95" d="M167.85,683.71c.06.03.1.08.11.13.02.13-.15.25-.37.25h-2.52c-.1,0-.19-.01-.25-.05-.06-.04-.11-.09-.11-.15v-.81c0-.13.18-.24.41-.23.09,0,.16.03.22.06.07.04.12.11.12.18v.56s2.11,0,2.11,0c.11,0,.21.03.29.07"/>
            <path class="st95" d="M174.06,679.95c.06.03.1.08.11.13.02.14-.15.25-.37.25h-2.52c-.1,0-.19-.01-.25-.05-.07-.04-.11-.09-.11-.15v-.81c0-.13.18-.24.41-.23.09,0,.16.03.22.06.07.05.12.11.12.18v.56s2.11,0,2.11,0c.11,0,.22.03.29.07"/>
            <path class="st95" d="M187.31,686.06c.18.11.18.29,0,.4-.18.11-.48.11-.66,0l-6.89-4.15c-.18-.11-.18-.29,0-.4.18-.11.48-.11.66,0l6.89,4.15Z"/>
            <path class="st95" d="M161.65,687.47c.06.03.1.08.11.13.02.14-.15.25-.37.25h-2.52c-.1,0-.19-.01-.25-.05-.06-.04-.11-.09-.11-.15v-.81c0-.13.18-.24.41-.23.09,0,.16.03.22.06.07.04.12.11.12.17v.56s2.11,0,2.11,0c.11,0,.21.03.29.07"/>
          </g>
        </g>
      </g>
      <g>
        <path class="st27" d="M451.22,611.67c0-.93-.59-1.87-1.76-2.4l-63.48-28.78c-1.09-.49-2.44-.49-3.53,0l-63.48,28.78c-1.18.53-1.76,1.47-1.76,2.4v6.4c0,.93.59,1.87,1.76,2.4l63.48,28.78c1.09.49,2.44.49,3.53,0l63.48-28.78c1.18-.53,1.76-1.47,1.76-2.4v-6.4ZM419.49,614.87l-34.39,15.59c-.55.25-1.22.25-1.76,0l-34.4-15.6,34.39-15.6c.55-.25,1.22-.25,1.76,0l34.39,15.6Z"/>
        <path class="st23" d="M383.33,630.46l-38.79-17.59c-1.18-.53-1.18-1.87,0-2.4l38.79-17.59c.55-.25,1.22-.25,1.76,0l38.79,17.59c1.18.53,1.18,1.87,0,2.4l-38.79,17.59c-.55.25-1.22.25-1.76,0Z"/>
        <path class="st32" d="M383.33,630.46l-38.79-17.59c-1.18-.53-1.18-1.87,0-2.4l38.79-17.59c.55-.25,1.22-.25,1.76,0l38.79,17.59c1.18.53,1.18,1.87,0,2.4l-38.79,17.59c-.55.25-1.22.25-1.76,0Z"/>
        <path class="st93" d="M382.45,580.49l-63.48,28.78c-2.35,1.07-2.35,3.73,0,4.8l63.48,28.78c1.09.49,2.44.49,3.53,0l63.48-28.78c2.35-1.07,2.35-3.73,0-4.8l-63.48-28.78c-1.09-.49-2.44-.49-3.53,0ZM383.34,630.47l-38.81-17.6c-1.18-.53-1.18-1.87,0-2.4l38.8-17.6c.55-.25,1.22-.25,1.76,0l38.8,17.6c1.18.53,1.18,1.87,0,2.4l-38.8,17.6c-.55.25-1.22.25-1.76,0Z"/>
        <path class="st30" d="M344.66,612.96l38.67,17.5c.54.25,1.22.25,1.76,0l38.8-17.56c.53-.24.88-.64.88-1.13v-102.41h-81.13v102.35c0,.61.43,1,1.02,1.24Z"/>
        <g>
          <path class="st33" d="M363.23,540.34c0-.71.74-1.29,1.64-1.29s1.64.58,1.64,1.29-.74,1.29-1.64,1.29-1.64-.58-1.64-1.29Z"/>
          <path class="st33" d="M389.58,594.15c0-.71.74-1.29,1.64-1.29s1.64.58,1.64,1.29-.74,1.29-1.64,1.29-1.64-.58-1.64-1.29Z"/>
          <ellipse class="st33" cx="391.3" cy="555.26" rx="3.28" ry="2.57"/>
          <ellipse class="st31" cx="397.89" cy="525.28" rx="1.72" ry="1.35"/>
          <ellipse class="st31" cx="371.42" cy="615.24" rx="1.72" ry="1.35"/>
          <path class="st31" d="M368.03,582.38c0-1.42,1.47-2.58,3.28-2.58s3.28,1.15,3.28,2.58-1.47,2.58-3.28,2.58-3.28-1.15-3.28-2.58Z"/>
          <path class="st31" d="M394.52,570.32c0-1.42,1.47-2.58,3.28-2.58s3.28,1.15,3.28,2.58-1.47,2.58-3.28,2.58-3.28-1.15-3.28-2.58Z"/>
          <path class="st31" d="M397.72,610.86c0-1.42,1.47-2.58,3.28-2.58s3.28,1.15,3.28,2.58-1.47,2.58-3.28,2.58-3.28-1.15-3.28-2.58Z"/>
          <ellipse class="st31" cx="378.19" cy="570.34" rx="1.78" ry="1.39"/>
        </g>
        <path class="st28" d="M344.54,612.87l4.41,2,34.38-15.59c.55-.25,1.22-.25,1.76,0l34.38,15.59,4.41-2c1.18-.53,1.18-1.87,0-2.4l-38.79-17.59c-.55-.25-1.22-.25-1.76,0l-38.79,17.59c-1.18.53-1.18,1.87,0,2.4Z"/>
      </g>
      <g>
        <g>
          <polygon class="st61" points="763.64 442.38 682.67 486.91 650.28 486.91 569.31 442.38 650.28 397.85 682.67 397.85 763.64 442.38"/>
          <g class="st71">
            <polygon class="st23" points="731.25 433.48 650.28 478 569.31 433.48 650.28 388.95 731.25 433.48"/>
            <polygon class="st91" points="731.25 433.48 731.25 442.38 650.28 486.91 650.28 478 731.25 433.48"/>
            <polygon class="st70" points="650.28 478 650.28 486.91 569.31 442.38 569.31 433.48 650.28 478"/>
          </g>
        </g>
        <path class="st63" d="M674.25,437.05c-4.97,0-7.85,2.3-7.99,4.47-.14,2.16,3.02,4.47,7.99,4.47h45.76v-8.93h-45.76Z"/>
        <path class="st62" d="M619.93,431.88c-4.97,0-7.85,2.3-7.99,4.47-.14,2.16,3.02,4.47,7.99,4.47h45.76v-8.93h-45.76Z"/>
        <g>
          <path class="st72" d="M619.19,425.96c-.08-.92.34-1.88,1.4-1.4.82.37,1.85,1.01,1.56,2.94-.3,2.01.66,2.23,1.83,3.66,1.22,1.5,6.4,4.21,4.54,5.55-1.05.75-2.47.69-3.28.27-2.15-1.11-4.91-2.73-6.98-3.87-.96-.53-.36-2.04.18-2.79.8-1.1.8-3.67.74-4.37Z"/>
          <path class="st72" d="M611.18,430.16c-.08-.92.34-1.88,1.4-1.4.82.37,1.58,1.45,1.56,2.94-.02,2.03.03,3.08.35,4.86.42,2.34.86,2.71.92,4.17.07,1.47-.13,2.64-1.12,2.88-.65.16-2.13.13-2.88-.38-2.28-1.55-1.52-2.97-1.47-4.89.02-.83-.41-1.89.38-4.06.17-.47.91-3.42.85-4.13Z"/>
          <path class="st8" d="M610.34,434.38s-.54,1-.55,1.89c0,.94.29,1.67.06,3.61s.52,2.68,1.57,3.36c1.07.69,2.99.57,3.4.18.61-.58.79-1.7.58-2.81s-.9-4.18-1.09-5.21-.81-1.34-1.49-1.29c-1.54.12-1.34,1.68-1.91,1.36s-.57-1.08-.57-1.08Z"/>
          <path class="st8" d="M618.93,429.21s-.31.94-.74,1.35c-.58.55-1.1,2.14-.07,2.86.75.53,1.66,1.03,2.25,1.1,1.31.14,1.13.94,2.2,1.6,1.1.68,2.23,1.56,4.43,1.25s2.53-1.64,1.57-2.56c-.76-.72-3.65-2.76-4.89-4.38s-1.63-1.38-2.48-.68c-1.03.85-1.69.6-2.26-.54Z"/>
          <path class="st78" d="M626.41,386.72s0,0,0,0c-.25-1.85-.51-4.03-.9-5.94l-16.13,4.44-.59,1.6c-.58,1.6-.64,3.03-.6,4.24.11,3.17,2.11,7.21,2.7,8.96.72,2.14,2.57,5.78,4.02,8.4-.04,1.01-1.4,1.62-2.58,5.64-.63,2.14-2.07,14.77-1.68,17.71.05.41.67.89,1.77.84.96-.05,1.97-.56,2.05-1.06,0,0,2.11-6.3,4.05-12.32.03,3.64.09,7.15.18,8.46.04.6,1.05.91,1.95.82.9-.09,1.8-.54,1.88-1.05.72-4.7,3.25-22.71,3.26-22.98.14-2.59,1.02-6.55,1.04-9.95.01-1.92.11-5.23-.42-7.81Z"/>
          <path class="st12" d="M619.62,390.76c.99,3.52,2.24,15.18,2.04,18.06-.09,1.22-3.13,10.42-3.13,10.42,0,0,.07,6.86.18,8.46.05.67,1.32,1.02,2.53.71,0,0-1.1-7.32,1.5-18.2,1.35-5.65-3.11-19.45-3.11-19.45Z"/>
          <g>
            <path class="st72" d="M626.42,375.63c1.01-6.52-.16-12.65-.86-15.05-.3-1.05-.89-1.94-1.48-2.3-.85-.52-1.61-.41-1.89.56-.41,1.45-.63,10.25,1.02,15.53.3.95.84,1.65,1.43,2.02.75.47,1.62.32,1.79-.76Z"/>
            <path class="st72" d="M624.8,376.52c2.14,1.51,5.37,2.33,7.71,3.41.61.28,1.34-.22,1.68-.55.53-.5,1.12-1.11.43-1.54-2.34-1.46-6.43-4.8-10.06-5.78-.48-.13-1.19-.47-1.54.87-.29,1.11.66,2.8,1.79,3.6Z"/>
            <path class="st10" d="M634.69,377.89c.24.14.91-.15.97-.16,1.28-.24,1.6.65,2.32.95.55.23.49.58.41.92-.04.18-.35,1.39-1.35,2.24-.94.8-2.32.1-3.18-.66-.45-.4-.97-.87-1.36-1.26-.86-.43-.19-1.27.11-1.52.96-.81,1.6-.76,2.07-.51Z"/>
          </g>
          <path class="st34" d="M626.59,366.33s-.22-2.4-.49-3.62c-.27-1.21-.68-4.2-2.61-4.67-.29-.07-4.82-.5-5.8-.56-.77-.05-1.89,0-2.94.54-3.16,1.61-5.88,3.05-7.6,4.26-2.57,1.82,4.84,14.81,4.84,16.62,0,1.44-1.94,4.62-2.52,6.18-.39,1.04,1.07,2.52,3.07,2.97,3.77.84,9.19-.92,11.37-2.85,1.95-1.73,1.59-4.53,1.59-4.53-.43-2.09-1.37-3.82-1.53-5.09-.26-2.17-.58-4.59.25-5.38,1.06-1.01,1.46-2.31,1.37-3.59h.01s.74-.02.98-.29Z"/>
          <path class="st72" d="M622.63,349.22c-.05-2.89-2.46-5.24-5.5-5.24s-5.5,2.35-5.5,5.24c0,3.52,2.89,6.44,2.89,6.44,0,0,4.9,1.42,5.46,1.6,1.47.47,1.92-.37,2.06-1.15.3-1.72.64-3.49.59-6.89Z"/>
          <g>
            <path class="st72" d="M619.19,357l-4.67-1.35s.06,1.45.06,2.01c0,.78-1.52,1.29-1.26,2.1.22.71,1.42,1.47,3.43,1.56,1.12.05,2.73-.63,3.08-1.37.39-.83-.66-1.31-.66-1.45,0-.24.02-1.5.02-1.5Z"/>
            <path class="st86" d="M619.19,357l-4.67-1.35s.06,1.45.06,2.01c0,.78-1.52,1.29-1.26,2.1,0,0,1.02-1.13,2.64-1.58,1.29-.35,3.21-.44,3.21-.44,0-.24.02-.75.02-.75Z"/>
          </g>
          <g>
            <path class="st72" d="M607.58,389.18c.65,1.41,1.67,3.67,2.35,4.37.26.27,1.18.76,1.33.78.2.02.85,0,1.19.04.31.03,1.07.31,1.2.35.42.12.73-.42.4-.68,0,0-.69-.48-1.26-1.26-.22-.3-.78-1.43-.78-1.43l.84.93c.81.89,1.47.18,1.47.18,0,0-2.05-2.43-2.26-2.61-.53-.44-2.23-.94-2.84-1.43-.24-.19-.7-.81-1.14-.81-.72-.01-.73,1.08-.5,1.57Z"/>
            <path class="st72" d="M601.66,380.85c3.38-3.42,5.56-7.74,8.05-13.35.42-.94.24-3.29-.49-4.45-.8-1.25-1.76-1.23-2.52-.23-.93,1.21-6.11,9.33-7.89,14.12-.47,1.26.03,2.32.42,2.89.9,1.31,1.87,1.6,2.44,1.03Z"/>
            <path class="st72" d="M599.22,379.83c1.69,3.17,8.29,9.37,8.65,9.92.66,1,1.23.75,1.49.49.34-.34.24-1.19-.15-1.81-1.02-1.59-5.13-9.98-8.73-11.75-.6-.29-1.05-.48-1.43.01-.5.65-.78,1.36.17,3.14Z"/>
          </g>
          <g>
            <path class="st69" d="M640.08,372.07s.05.06.04.11l-2,10.19c0,.12-.11.28-.24.35l-4.59,2.5c-.07.04-.13.04-.17.02-.04-.02-.07-.06-.07-.12l2-10.19c0-.12.11-.28.24-.35l4.59-2.5c.08-.04.15-.04.19-.01Z"/>
            <path class="st94" d="M640.08,372.07s-.11-.03-.19.01l-4.59,2.5c-.13.07-.24.23-.24.35l-2,10.19c0,.06.02.1.07.12h0s-.32-.18-.32-.18h0s-.05-.06-.05-.11l2-10.19c0-.12.11-.28.24-.35l4.59-2.5c.07-.04.13-.04.17-.02h0s.33.18.33.18h0Z"/>
          </g>
          <path class="st72" d="M636.11,380.95l.25-.1c-.11.03-.21-.03-.26-.16-.05-.14.05-.27.24-.36l.71-.34c-.16,0-.32-.08-.39-.23v-.03c-.1-.19-.02-.41.17-.51l1.93-.93c.17-.08.29.16.25.52-.03.34.12.36.13.65,0,.27-.24.4-.24.65,0,.37-.22.23-.15.59.04.17.05.4-.33.65l-1.52.67c-.21.08-.45-.03-.53-.23l.04.1c-.06-.16,0-.33.13-.44l-.16.06c-.2.08-.46-.02-.51-.13-.09-.19.04-.34.24-.43Z"/>
          <path class="st88" d="M623.09,347.38c-.22-1.39-2.03-3.13-4.85-3.66,0,0,0,0,0,0-2.22-.48-4.77.27-6.26,2.72-.17.27-.91,1.35-.91,2.78,0,.91.18,1.78.46,2.58-1.09.32-1.88,1.28-1.88,2.43,0,1.4,1.11,2.5,2.59,2.57.78.03,1.57-.22,2.28-1.13,0,0,.2-1.85.2-1.85-.58.58-1.2-.58-1.38-1.01-.3-.7-.38-1.27-.23-1.84.15-.55.58-.56,1.03-.31.21.11.43.44.54.7-.01.45.05.57.1.98.28,2.03.71,1.91,1.05,3.13.56,1.98-.31,3.06-.31,3.06.86-.47,1.08-1.53.99-2.96-.07-1.2-2.58-3.66,1.21-5.1,2.59-.99,3.25-2.64,3.41-3.59.01,0,1.41,1.29,1.5,2.97,0,0,.68-1.05.46-2.44Z"/>
          <path class="st16" d="M609.48,385.09c-.14.35-.14,1.38,1.36,2.27,1.26.75,2.79.93,4,.92,0,0-1.15-.67-1.15-3.08,0-1.77,3.29-11,3.29-11,0,0-1.65.34-3.28-.64-.83-.5-2.04-1.46-2.82-3.12s-.96-3.05-.96-3.05l-1.36,3.04,2.03,4.63s1.42,3.18,1.46,3.86c.05,1.03-1.92,4.6-2.55,6.17Z"/>
          <path class="st34" d="M602.25,369.74s.19,1.08,1.84,2c1.86,1.05,3.43.46,3.43.46.96-1.36,1.62-3.06,2.43-5.03.69-1.68-.02-3.89-.94-4.65-.7-.58-1.56-.89-2.49.45-.77,1.11-3,4.46-4.27,6.76Z"/>
        </g>
        <g>
          <path class="st81" d="M639.37,287.99l-50.71,27.89c-1.67.92-3.03-.06-3.03-2.18v-5.25s0-22.71,0-22.71c0-2.12,1.35-4.59,3.03-5.51l50.71-27.89c1.67-.92,3.03.06,3.03,2.18v27.95c0,2.12-1.35,4.59-3.03,5.51Z"/>
          <polyline class="st81" points="585.69 326.41 593.91 312.93 585.63 308.46"/>
        </g>
        <g>
          <path class="st81" d="M653.54,319.49l50.71,27.89c1.67.92,3.03-.06,3.03-2.18v-5.25s0-22.71,0-22.71c0-2.12-1.35-4.59-3.03-5.51l-50.71-27.89c-1.67-.92-3.03.06-3.03,2.18v27.95c0,2.12,1.35,4.59,3.03,5.51Z"/>
          <polyline class="st81" points="707.22 357.91 699 344.43 707.28 339.95"/>
        </g>
        <g>
          <g>
            <path class="st20" d="M680.13,437.04c0-.52-.25-2.25-1.45-2.78-1.29-.56-1.37.64-1.42,1.03-.09.65-1.56,2.04-3.39,1.47-.55-.17-1.29-.5-2.2-.63-.78-.11-1.76.19-1.62,1.44.15,1.34,2.31,2.15,4.1,3.11s4.04,2.28,5.03,2.69c.67.28,2.07-.61,2.18-1.16s.09-1.7-.18-2.27c-.42-.9-1.05-1.92-1.05-2.89Z"/>
            <path class="st36" d="M676,436.58c-1.01.42-1.29.27-2.16.13-.57-.09-1.28-.44-2.19-.57-.78-.11-1.76.19-1.62,1.44.09.84.44,1.67,1.52,2.26.65.35,2.17.69,3.23,1.2s1.02.99,1.95,1.57,1.64.76,2.22.86c.94.17,2.28-.67,2.44-1.22.22-.72.05-1.75-.22-2.32s-.67-1.46-.89-2.08c0,0-.35-.09-.59.47-.2.47-1.02.63-1.6.56-2.9-.36-2.4-1.26-2.15-1.54.31-.35.24-.82.07-.75Z"/>
          </g>
          <g>
            <path class="st20" d="M669.92,443.12c0-.52-.25-2.25-1.45-2.78-1.29-.56-1.37.64-1.42,1.03-.09.65-1.29,2.22-4,2.68-.57.1-2.7.23-3.57.51-1.27.41-.81,2.36,1.17,2.81,1.66.38,2.02.11,4.25.5,2.1.36,2.87.57,3.94.72.94.13,2.05-.01,2.37-.61.26-.49.14-1.46-.08-2.05-.5-1.36-1.21-1.95-1.21-2.81Z"/>
            <path class="st36" d="M665.17,443.06c-.87.64-1.4.76-2.28.83-.58.04-2.21.28-3.13.37-.78.08-1.66.6-1.2,1.78.31.79,1.47,1.63,2.7,1.84,1.15.19,2.5-.14,3.65.11,1.16.25,1.24.72,2.3,1.07s1.78.36,2.37.32c.96-.06,2.03-1.18,2.05-1.75.02-.75-.21-1.49-.55-2.11-.29-.55-.55-1.22-.92-1.9,0,0-.36,0-.45.59-.07.5-1.14.85-1.73.91-2.91.33-2.87-.97-2.69-1.3.21-.41.02-.85-.12-.75Z"/>
          </g>
          <g>
            <path class="st20" d="M686.28,381.32c-.43-3.91-1.23-10.78-2.85-15.39-.48-1.36-1.6-1.83-2.64-2.3-1.32-.59-2.52.11-2.33,1.17.28,1.64,3.07,12.52,3.82,14.96.37,1.22,1.13,1.8,1.69,2.16,1.66,1.07,2.4.14,2.32-.61Z"/>
            <path class="st20" d="M684.33,379.18c-2.68,2.22-9.55,7.91-10.3,8.84-.58.71-.5,1.34-.4,1.68.22.78.64.72,1.08.52.89-.41,8.42-3.94,10.98-7.14.73-.91.68-1.6.48-2.83-.22-1.33-1.33-1.5-1.84-1.08Z"/>
            <path class="st20" d="M674.8,389.95c-.95.9-3.05,1.93-3.98,2.22-.36.11-1.38.11-1.52.06-.18-.07-.73-.38-1.04-.5-.28-.11-1.07-.22-1.19-.24-.42-.09-.41-.68,0-.76,0,0,.82-.09,1.7-.5.34-.15,1.38-.86,1.38-.86l-1.17.41c-1.13.4-1.34-.51-1.34-.51,0,0,2.95-1.14,3.22-1.2.67-.14,2.52-.13,3.2-.47.31-.15.77-.3,1.05.28.34.7-.03,1.82-.31,2.08Z"/>
          </g>
          <g>
            <path class="st77" d="M681.32,388.99c.82,1.36,1.51,3.09,1.51,5.38,0,3.2-.87,4-.88,4.67-.05,3.02-1.56,13.04-1.18,14.67.4,1.76.69,3.75.86,5.89.5,6.16-.52,13.32-.97,16.25-.07.48-1.13.96-2.33,1.07-1.03.1-2.62-.5-2.71-1.12-.4-2.71-.77-12.27-.93-14.38-.09-1.23-.48-4.66-.9-6.5-.18-.79-.11-10.29-.11-11.13-.99,5.37-3.74,14.28-3.36,15.49.42,1.34.55,3.81.71,5.79.5,6.16-.34,14.4-.43,17.36-.02.66-1.61.86-2.87.78-.76-.04-2.18-.39-2.28-1.11-.38-2.73-1.89-11.36-1.95-14.25s.14-5.72-.07-7.7c-.29-2.83-1.04-7.63-1.1-11.35-.06-3.56.67-9.69,1.23-12.27,1.24-5.69,1.55-6.34,1.55-6.34,0,0,3.88,1.54,8.36,1.2,3.73-.28,7.85-2.41,7.85-2.41Z"/>
            <path class="st6" d="M674.91,400.85c1.64-1,.97-4.81,1.3-4.81.45,0,.28,1.14.87,2.06.48.74,1.06.79,1.87.79,1.09,0-3.18,3.14-3.18,5.8,0,3.45,1.34,10.46,1.55,11.32,1.08,4.41.17,9.55.26,13.92.08,4.21,2.02,6.72,2.02,6.72h0s-.61.23-1.27.27c-.32.02-.72,0-1.12-.1-.78-.2-1.53-.61-1.59-1.03-.4-2.71-.77-12.27-.93-14.38-.09-1.23-.76-5.54-.9-6.5-.33-2.33-.07-9.5-.11-11.13,0,0,.3-2.38,1.23-2.95Z"/>
          </g>
          <path class="st92" d="M680.89,363.04c-1.04-.44-2.42-.3-3.75.09-2.29.68-4.24,1.06-4.89,1.39-3.03,1.55-5,2.72-6.77,3.91-1.38.93-1.36,1.67-1.38,2.78-.09,4.5,2.24,14.06,1.98,15.66-.2,1.18-.87,2.38-1.35,4.69,0,0,2.69,1.17,6.13,1.17,8.46,0,10.91-2.94,10.91-2.94-.59-1.17-1.02-3.41-1.02-4.85,0-2.41.16-4.91.67-8.77,1.47.33,4.06-1.22,4.06-1.22,0,0-.79-6.26-1.47-8.42-.41-1.28-.72-2.48-3.11-3.49Z"/>
          <path class="st18" d="M675.22,392.43c-1.23.19-2.67.31-4.36.31-3.44,0-6.13-1.17-6.13-1.17.48-2.31,1.15-3.51,1.35-4.69.1-.6-.15-2.12-.47-4.1-.7-4.43,2.71-10.65,2.71-10.65,0,0,.99,9.53,2.38,12.74.87,2.01,4.52,7.57,4.52,7.57Z"/>
          <path class="st20" d="M680.21,355.2c-.06-3.15-2.69-5.71-6-5.71s-6,2.56-6,5.71c0,.27-.18,5.23-.18,5.23,0,.78.55,1.13,1.07,1.13,0,0,7.72.03,7.72.03,1.29-1.32,3.44-3.51,3.38-6.4Z"/>
          <path class="st0" d="M677.14,363.14c.04.15.1.33.15.52-.04-.34-.15-.52-.15-.52Z"/>
          <path class="st20" d="M671.64,365.99c.55.26,1.84.47,3.1,0,1.99-.74,2.5-1.27,2.55-1.87.04-.48-.12-.83-.16-.98-.14-.6-.31-1.54-.31-1.54l-5.93-.02s.63,2.38.28,3.56c-.09.29.07.66.46.85Z"/>
          <g>
            <path class="st20" d="M663.44,390.1c1.94-.96,3.4-7.27,4.11-11.08.86-4.59.56-6.52-.03-7.79-.8-1.71-1.78-2.54-2.87-1.87-.65.4-1.47,1.29-1.82,3.72-.71,4.9-2.37,12.13-1.92,15.25.11.78,1.01,2.51,2.53,1.76Z"/>
            <path class="st20" d="M663.47,386.38c-2.34-3.4-9.07-6.61-10.23-7.21-.61-.32-1.49-.29-1.72.02-.54.73-.09,1.31.25,1.68.69.76,6.22,6.62,10.02,9.14,1,.66,1.5.55,1.96-.22.54-.9.26-2.59-.3-3.4Z"/>
            <path class="st20" d="M651.78,380.86c-1.16-.64-3.59-2.31-4.14-3.08-.21-.3-.1-1.19-.08-1.32.02-.19.19-.77.23-1.08.04-.29-.77-1.96-.77-2.08-.02-.4.48-.52.67-.16,0,0,1.11,1.6,1.76,2.3.25.27,1.24,1.03,1.24,1.03l-.63-1.01c-.7-.93.06-1.32.06-1.32,0,0,1.94,2.4,2.07,2.64.32.57.54,1.87,1.06,2.4.24.24.51,1.24.17,1.78-.37.59-1.3.11-1.64-.08Z"/>
          </g>
          <path class="st92" d="M661.71,379.32s.29.91,2.36,1.37,3.19.12,3.19.12c0,0,1.31-6.12,1.03-9.2-.15-1.66-1.1-2.88-2.13-3.02-1.27-.17-2.25,1.07-2.98,2.95-.68,1.76-1.47,7.79-1.47,7.79Z"/>
          <path class="st36" d="M678.65,350.94c-1.21-1-2.37-1.89-4.53-1.89-2.05,0-5.28,1.49-7.02,2.06-.14.04.02,2.12.94,3.09.62.66,1.23.07,1.87.51.6.42.47,2.43.47,3.09,0,.23.35.29.47,0,.58-1.45,1.74-1.18,1.87-.1.05.39,0,.69,0,1.13,0,.51,1.55,3.41,3.75,3.6l.47-.26c-.07-1.14,2.52-2.79,3.11-5.83.49-2.55-.17-4.4-1.4-5.41Z"/>
        </g>
      </g>
      <g>
        <g>
          <path class="st93" d="M530.8,417.52c-8.78-5.01-22.97-5.01-31.7,0-8.72,5.01-8.67,13.14.11,18.15,8.78,5.01,22.97,5.01,31.69,0,8.72-5.01,8.68-13.14-.1-18.15"/>
          <polygon class="st0" points="515.01 405.92 478.97 426.59 515.01 447.26 551.05 426.59 515.01 405.92"/>
        </g>
        <g>
          <path class="st66" d="M525.54,420.54c-5.85-3.34-15.31-3.34-21.13,0s-5.78,8.76.07,12.1c5.85,3.34,15.31,3.34,21.12,0,5.82-3.34,5.79-8.76-.07-12.1"/>
          <polygon class="st0" points="515.01 412.28 490.06 426.59 515.01 440.9 539.96 426.59 515.01 412.28"/>
        </g>
        <g>
          <path class="st23" d="M520.87,423.22c-3.26-1.86-8.53-1.86-11.76,0-3.23,1.86-3.22,4.88.04,6.74,3.26,1.86,8.53,1.86,11.76,0,3.24-1.86,3.22-4.88-.04-6.74"/>
          <polygon class="st0" points="515.01 418.64 501.15 426.59 515.01 434.54 528.87 426.59 515.01 418.64"/>
        </g>
        <path class="st26" d="M523.33,282.65h-16.63v143.95c0,1.22.83,2.44,2.46,3.37,3.26,1.86,8.53,1.86,11.76,0,1.62-.93,2.42-2.15,2.42-3.37v-143.95Z"/>
      </g>
      <line class="st3" x1="289.33" y1="593.69" x2="289.33" y2="654.33"/>
      <g>
        <path class="st45" d="M922.33,623.9v-4.72c0,.13,0,.25,0,.38,0-.29.01-.59,0-.89-.27-12.53-11.54-22.37-22.5-28.13-29.86-15.7-78.12-15.7-107.8,0-14.79,7.83-22.16,18.08-22.15,28.34,0-.03,0-.07,0-.1v5.25c-.04,10.36,7.47,20.73,22.5,28.64,14.93,7.85,34.47,11.78,53.97,11.78,19.51,0,38.99-3.93,53.83-11.78.44-.23.87-.47,1.31-.71.06-.03.12-.07.18-.1.3-.17.59-.33.89-.51.25-.14.49-.29.73-.43.05-.03.09-.05.14-.08,7.26-4.35,12.43-9.33,15.5-14.58.06-.1.12-.2.18-.31.08-.15.16-.29.24-.44,1.85-3.36,2.95-7.03,2.98-10.98,0-.03,0-.07,0-.1v-.36s0-.1,0-.15c0,0,0-.01,0-.02ZM770.05,621.46c0-.05-.01-.11-.02-.16,0,.05.01.1.02.15,0,0,0,0,0,0ZM922.28,620.55c.01-.17.02-.35.03-.52,0,.17-.02.35-.03.52ZM769.92,619.85c0-.16-.01-.32-.01-.48,0,.16,0,.32.01.48ZM769.98,620.81c-.01-.16-.02-.32-.04-.48.01.16.02.32.04.48Z"/>
        <path class="st44" d="M922.34,619.18v5.25c-.04,10.23-7.42,20.44-22.16,28.24-29.67,15.71-77.93,15.71-107.8,0-15.03-7.9-22.53-18.28-22.5-28.64v-5.25c-.03,10.36,7.48,20.73,22.51,28.64,29.86,15.71,78.13,15.71,107.8,0,14.74-7.8,22.12-18.01,22.15-28.24Z"/>
      </g>
      <g>
        <g>
          <path class="st34" d="M324.98,234.13l23.09-11.97c2.15-1.12,4.62-.96,6.51.08l3.04,1.57h0c1.63.84,2.85,2.32,3.13,4.2l5.11,34.45-35.02,18.16-3.19-1.65-5.8-39.13c-.34-2.3.89-4.55,3.13-5.71Z"/>
          <polygon class="st77" points="400.88 280.62 365.86 262.46 330.84 280.62 365.86 298.78 400.88 280.62"/>
          <polygon class="st77" points="400.88 280.62 400.88 283.92 365.86 302.08 365.86 298.78 400.88 280.62"/>
          <polygon class="st34" points="365.86 298.78 327.65 278.97 327.65 282.27 365.86 302.08 365.86 298.78"/>
          <path class="st77" d="M365.86,262.46l-5.11-34.45c-.6-4.04-5.57-6.23-9.49-4.2l-23.09,11.97c-2.23,1.16-3.47,3.41-3.13,5.71l5.8,39.13,35.02-18.16Z"/>
          <polygon class="st77" points="400.88 283.92 400.88 316.94 399.29 317.76 399.29 284.75 400.88 283.92"/>
          <polygon class="st34" points="397.69 316.94 399.29 317.76 399.29 284.75 397.69 285.57 397.69 316.94"/>
          <polygon class="st77" points="367.45 301.26 367.45 334.27 365.86 335.1 365.86 302.08 367.45 301.26"/>
          <polygon class="st34" points="364.27 334.27 365.86 335.1 365.86 302.08 364.27 301.26 364.27 334.27"/>
          <polygon class="st77" points="330.84 283.92 330.84 315.29 329.25 316.11 329.25 283.1 330.84 283.92"/>
          <polygon class="st34" points="327.66 315.29 329.25 316.11 329.25 283.1 327.66 282.27 327.66 315.29"/>
        </g>
        <g>
          <path class="st36" d="M387.43,330.3c-.14-1.63.64-3.33,2.64-2.48,1.55.66,3.48,1.79,2.94,5.21s1.25,3.96,3.43,6.5c2.29,2.67,12.04,7.47,8.53,9.84-1.97,1.33-4.64,1.23-6.17.49-4.05-1.97-9.24-4.84-13.12-6.86-1.8-.94-.67-3.62.35-4.94,1.5-1.95,1.5-6.5,1.39-7.75Z"/>
          <path class="st36" d="M368.75,339.49c-.14-1.63.64-3.33,2.64-2.48,1.55.66,3.48,1.79,2.94,5.21s1.25,3.96,3.43,6.5c2.29,2.67,12.04,7.47,8.53,9.84-1.97,1.33-4.64,1.23-6.17.49-4.05-1.97-9.24-4.84-13.12-6.86-1.8-.94-.67-3.62.35-4.94,1.5-1.95,1.5-6.5,1.39-7.75Z"/>
          <path class="st10" d="M387.01,336.07s-.58,1.66-1.39,2.39c-1.09.98-2.06,3.8-.14,5.08,1.42.94,3.13,1.83,4.22,1.95,2.47.25,2.13,1.67,4.13,2.83s4.2,2.77,8.33,2.23,4.76-2.91,2.94-4.55c-1.43-1.28-6.87-4.9-9.19-7.76-2.32-2.86-3.07-2.45-4.66-1.2-1.93,1.51-3.18,1.06-4.24-.95Z"/>
          <path class="st10" d="M368.32,345.26s-.58,1.66-1.39,2.39c-1.09.98-2.06,3.8-.14,5.08,1.42.94,3.13,1.83,4.22,1.95,2.47.25,2.13,1.67,4.13,2.83s4.2,2.77,8.33,2.23,4.76-2.91,2.94-4.55c-1.43-1.28-6.87-4.9-9.19-7.76-2.32-2.86-3.07-2.45-4.66-1.2-1.93,1.51-3.18,1.06-4.24-.95Z"/>
          <path class="st36" d="M377.04,249.09c-.11-7.89-2.16-16.08-4.3-21.47-2.05-5.14-4.18-7.9-6.29-8.93-2.61-1.28-4.49.39-4.12,3.6,1.32,11.47,7.9,26.88,10.42,28.84,1.26.98,2.35,1.67,3.56.77.9-.67.75-2.18.74-2.8Z"/>
          <path class="st78" d="M368.89,272.92c-1.38-6.2-3.41-15.04-3.41-15.04,0-1.68,6.64-22.18,5-33.34-.44-3.01-2.78-5.75-4.71-6.14-4.01-.82-13.7-2.16-16.7-.63-5.71,2.92-15.98,8.09-16.98,10.77-1.01,2.71.6,5.41,1.26,6.46,0,0,5.39,22.86,5.39,31.47,0,0-5.09,10.64-5.09,14.75,0,1.6,2.73,4.05,7.13,4.55,6.01.67,9.26.18,12.27-1.34s12.49-5.67,14.33-7.34c1.84-1.68,1.71-3.26,1.51-4.16Z"/>
          <path class="st20" d="M338.74,266.47s-3.44,6.93-4.6,11.21c0,0-.99,3.7-.93,6.05.07,3.06.66,6,3.29,7.95,3.04,2.26,9.46,5,12.85,6.19,3.14,1.11,12.2,4.76,17.79,6.28-.63,2.3-1.26,4.68-1.3,7.42-.07,3.93.34,25.89.93,30.95.16,1.37,2.43,2.22,4.92,2.06,2.99-.19,4.73-1.63,4.87-2.53,1.39-8.49,3.91-35.25,4.47-38.83.43-2.75-1.25-6.01-2.81-7.5-1.03-.98-2.41-2.2-3.99-3.5,3.16.82,7.68,1.9,12.03,2.84-.6,2.25-1.63,4.95-1.67,7.6-.07,3.93-.16,25.34.43,30.4.16,1.37,2.7,2.27,5.28,2.01,2.82-.29,4.37-1.6,4.51-2.49,1.39-8.49,3.59-34,4.52-37.21.66-2.29.13-4.67-1.08-6.63-1.67-2.7-14.73-11.2-19.84-13.9-2.51-1.32-6.37-3.45-10.26-5.05-1.28-5.69-2.73-11.98-2.73-11.98l-26.67,8.66Z"/>
          <path class="st15" d="M374.46,292.34c6.31,1.62,11.86,2.8,11.86,2.8,0,0-1.52,4.66-1.62,6.71-.15,3.02-.13,6.76-.1,9.42.05,3.9.07,17.44.48,21.87.11,1.19,2.04,2.15,4.72,2.05,0,0-3.22-21.11,3.8-41.42,1.81-5.23-22.97-11.07-31.44-10.59,0,0,4.64,3.21,6.15,4.32s6.15,4.84,6.15,4.84Z"/>
          <path class="st84" d="M333.35,235s2.11,11.58,3.15,15.04c.68,2.27,3.06,11.1,3.06,11.1,0,1.5-3.41,11.04-3.41,11.04,0,0,8.08,4.02,19.92,1.16,10-2.42,11.56-6.06,11.56-6.06,0,0-.91-5.77-.82-9.71.05-2.38,2.36-14.4,2.77-17.49,0,0,3.93-.13,6.28-1.73-.52-3.05-1.7-6.95-2.93-10.28-2.05-5.57-4.46-8.86-6.83-9.59-3.29-1.02-13.47-2.31-16.65-.87-7.26,3.27-15.53,8.19-16.9,10.19,0,0-.8.63-.76,3.02.02,1.1,1.57,4.17,1.57,4.17Z"/>
          <g>
            <path class="st36" d="M356.6,216.23l-9.58-2.63s.15,2.09.15,2.98c0,1.99-1.77,2.44-2.04,3.87-.29,1.52,3.51,2.24,6.97,2.13,2.65-.08,5-1.4,5.6-2.6.66-1.34-1.13-2.13-1.13-2.35,0-.4.04-1.4.04-1.4Z"/>
            <path class="st36" d="M362.27,202.17c-.09-5.13-4.63-9.29-10.34-9.29-5.71,0-10.34,4.16-10.34,9.29,0,6.24,5.43,11.42,5.43,11.42,0,0,9.22,2.53,10.27,2.83,2.78.79,3.62-.65,3.88-2.04.57-3.05,1.21-6.19,1.1-12.21Z"/>
          </g>
          <path class="st41" d="M360.71,193.14l-13.16-.26c-3.48,0-5.97,2.53-5.97,5.66,0,0,0,3.23,0,4.3,0,.75.46,3.03,1.24,4.65,1.9,3.98,4.19,6.1,4.19,6.1,0,0,.79-2.5.78-2.6,0,0-1.59-1.95-1.76-2.42-.28-.77-.32-2.16-.32-3.06,0-.48.31-1.18,1.12-.76.44.23.74.69.95,1.2.15.36.72.33.81-.05.43-1.79,1.09-4.13,3.33-5.57,1.8-1.16,4.75-1.34,7.35-.96,1.82.27,2.85,1.41,2.85,1.41v-6.37c0-.71-.64-1.28-1.43-1.28Z"/>
          <path class="st13" d="M336.14,272.18s3.48,1.88,9.96,2.2c3.63.18,9.94-.59,12.96-1.88s-8.93-8.8-10.99-12.26c-1.84-3.08-5.23-18.67-5.59-22-.31-2.86-2.62-2.46-2.62-2.46l-3.53,13.71s3.15,10.43,3.21,11.65c.1,1.84-2.42,8.04-3.41,11.04Z"/>
          <path class="st36" d="M342.72,267.4c2.05-9.9,2.47-31.84-5.75-39.22-1.32-1.19-3.07-1.52-3.98-.79-.32.26-1.21,1.08-1.21,2.76,0,17.44,2.36,28.62,4.37,35.77.55,1.96,2.59,4.04,3.83,4.19,1.87.23,2.46-1.29,2.75-2.7Z"/>
          <path class="st84" d="M332.7,247.98s2.26.98,5.38.74c3.29-.25,5.69-.99,5.69-.99,0,0-.63-8.33-1.59-11.13-2.15-6.26-4.56-11.19-7.87-9.98-2.94,1.08-2.61,3.05-2.54,7.07.08,4.87.95,14.28.95,14.28Z"/>
          <g class="st17">
            <path class="st14" d="M356.6,216.23l-9.58-2.63s.04.76.11,1.63c.13,1.68-.02,2.39-.46,2.98,0,0,1.99-1.62,4.61-1.49,1.35.07,5.31.95,5.31.95,0-.47.02-1.43.02-1.43Z"/>
          </g>
        </g>
        <g>
          <g>
            <polygon class="st87" points="448.99 271.15 448.88 321.49 400.56 295.82 400.11 246.04 448.99 271.15"/>
            <polygon class="st73" points="450.37 270.43 351.39 321.6 302.53 296.36 401.5 245.2 450.37 270.43"/>
            <polygon class="st87" points="450.37 270.43 450.36 271.86 351.39 323.02 351.39 321.6 450.37 270.43"/>
            <polygon class="st97" points="351.34 321.6 351.23 373.23 302.91 347.56 302.46 296.36 351.34 321.6"/>
          </g>
          <g class="st71">
            <polygon class="st87" points="448.99 271.15 450.36 270.43 450.26 320.77 448.88 321.49 448.99 271.15"/>
          </g>
          <g class="st71">
            <polygon class="st87" points="351.34 322.89 352.71 322.17 352.61 372.51 351.23 373.23 351.34 322.89"/>
          </g>
        </g>
        <polygon class="st29" points="376.69 290.96 408.94 273.49 384.36 263.51 350.5 279.41 376.69 290.96"/>
        <path class="st68" d="M367.35,247.52c-.02.08-.03.16-.03.23-.02-.02-.02-.04-.04-.06.02-.06.05-.11.08-.17Z"/>
        <path class="st89" d="M359.54,281.86s-.02,0-.02.01c0-.01,0-.01,0-.01h.02Z"/>
        <path class="st82" d="M378.97,248.27s0,.03.01.04h-.01s0-.03,0-.04Z"/>
        <polygon class="st67" points="350.5 279.41 350.43 280.07 376.41 291.55 376.68 290.85 350.5 279.41"/>
        <path class="st73" d="M368.64,235.37"/>
        <path class="st36" d="M338.43,269.31c5.6,4.6,25.64,12.18,26.74,12.53.71.22,1.34-.12,1.52-.83.2-.76.03-2.34-1.16-3.45-2.53-2.35-18.14-12.97-27-15.69-1.41-.43-2.52.48-2.62,2.08-.15,2.63,1.7,4.7,2.52,5.36Z"/>
        <path class="st36" d="M364.94,277.07c-.55-.24-1.64-.55-2.01.79s.75,3.07,1.62,3.81c.75.63.9,1.55,2.02,2.31,1.84,1.25,3.74,1.42,3.74,1.42,0,0,1.47,1.76,2.52,3.56.47.82,1.25.49,1.12.11-.16-.47-.9-2.77-1.13-3.57-.03-.09.09-.15.17-.1,0,0,1.02.66,1.29.94.42.44,1.27,2.02,1.27,2.02.47.93,1.4.74,1.32.47-.16-.58-.54-2.13-.76-2.45-.25-.36-.87-1.51-.87-1.51-.02-.04.04-.08.07-.05,0,0,.81.49,1.49,1.08.5.43.71.53,1,1.2.38.87,1.34.47,1.23.21-.24-.56-.48-1.34-.81-1.8-.25-.34-1.13-1.2-1.13-1.2-.04-.05.02-.12.08-.09,0,0,1.23.56,1.67.73,1.17.44,1.83-.07,1.52-.29-1.4-.98-4.48-3.42-6.23-4.17-1.39-.6-7.33-2.6-9.18-3.41Z"/>
        <g>
          <path class="st36" d="M373.88,251.95c8.16,5.49,21.54,9.01,22.68,9.33,1.38.39,1.58-.54,1.72-1.12.18-.73-.44-2.62-1.8-3.58-2.79-1.95-15.78-11.01-23.12-12.54-1.43-.3-2.39.27-2.64,1.78-.25,1.53.52,4.34,3.16,6.12Z"/>
          <path class="st36" d="M405.07,259.85c-1.29-.51-3.91-1.28-4.58-1.55-1.05-.43-3.41-1.34-4.01-1.71-.77-.48-1.98-.42-2.07,1.18-.07,1.21.59,2.32,1.35,3,.33.3,1.47,1.05,1.47,1.05,0,0,.14,2.32.74,3.24.55.85,1.8,2.06,3.07,2.76.16.09.71-.55.35-1.31-.25-.53-.57-.36-1.48-1.67-.91-1.31,1.78-.5,2.27-.24.59.31,1.76.89,2.15,1.44.29.4.86,1.4,1.05,1.75.49.88,1.5.26,1.41.04-.19-.47-.7-1.51-1.2-2.33-.28-.46-.59-.82-.73-1.04-.02-.03.03-.07.06-.04,0,0,1.11.76,1.42,1.07.47.46,1,1.08,1.28,1.71.38.85,1.42.45,1.32.13-.16-.54-.63-1.53-1.31-2.37-.56-.69-1.15-1.3-1.4-1.61-.02-.03.02-.06.05-.04,0,0,1.42.96,1.83,1.35.38.37,1.23,1.12,1.54,1.59.44.67,1.46.3,1.28-.05-.56-1.08-2.21-2.74-2.21-2.74,0,0-.08-1.06-.34-1.3-1.53-1.39-2.37-1.94-3.34-2.32Z"/>
        </g>
        <g>
          <polygon class="st67" points="417.53 249.84 385.18 266.56 375.82 290.58 376.41 291.55 386 267.13 418.66 250.26 417.53 249.84"/>
          <polygon class="st29" points="408.66 274.09 376.41 291.55 386 267.13 418.66 250.26 408.66 274.09"/>
        </g>
      </g>
      <path class="st23" d="M336.15,279.51v.8h-.88v-.8h.88ZM332.18,279.51v.8h-.88v-.8h.88ZM334.16,279.51v.8h-.88v-.8h.88ZM336.15,281.3v.8h-.88v-.8h.88ZM332.18,281.3v.8h-.88v-.8h.88ZM334.16,281.3v.8h-.88v-.8h.88ZM336.15,283.09v.8h-.88v-.8h.88ZM332.18,283.09v.8h-.88v-.8h.88ZM334.16,283.09v.8h-.88v-.8h.88Z"/>
      <g>
        <g>
          <polygon class="st66" points="377.4 186.19 377.4 219.71 416.4 219.71 423.57 226.78 423.57 186.19 377.4 186.19"/>
          <ellipse cx="390.47" cy="202.99" rx="2.31" ry="2.4"/>
          <ellipse cx="399.7" cy="202.99" rx="2.31" ry="2.4"/>
          <ellipse cx="408.93" cy="202.99" rx="2.31" ry="2.4"/>
        </g>
        <g>
          <path class="st96" d="M447.73,191.77c1.27-2.92,1.98-6.16,1.98-9.58,0-12.81-9.99-23.2-22.31-23.2s-22.31,10.39-22.31,23.2,9.99,23.2,22.31,23.2c5.26,0,10.1-1.89,13.91-5.06l8.4,1.75-1.98-10.31Z"/>
          <g>
            <line class="st65" x1="415.86" y1="174.99" x2="438.94" y2="174.99"/>
            <rect class="st23" x="415.86" y="174.99" width="23.08" height="1.6"/>
            <rect class="st23" x="415.86" y="181.39" width="23.08" height="1.6"/>
            <rect class="st23" x="415.86" y="187.79" width="23.08" height="1.6"/>
          </g>
        </g>
      </g>
      <g>
        <polygon class="st34" points="396.08 944.03 456.31 913.67 456.32 772.48 396.09 799.57 396.08 944.03"/>
        <polygon class="st40" points="350.9 779.3 411.13 752.23 456.32 772.53 396.09 799.62 350.9 779.3"/>
        <polygon class="st20" points="396.09 944.04 350.9 923.73 350.9 779.3 396.1 799.62 396.09 944.04"/>
        <polygon class="st20" points="355.91 804.12 350.9 788.35 350.9 819.94 355.91 804.12"/>
        <g>
          <polygon class="st20" points="386.07 937.49 350.94 921.7 350.94 890.11 386.04 905.88 386.07 937.49"/>
          <polygon class="st34" points="386.04 937.47 391.09 935.22 391.09 903.63 386.04 905.88 386.04 937.47"/>
          <polygon class="st47" points="391.09 903.63 355.96 887.83 350.94 890.11 386.04 905.88 391.09 903.63"/>
          <polygon class="st42" points="386.04 937.47 350.94 890.11 386.04 905.88 386.04 937.47"/>
          <polygon class="st57" points="350.94 921.7 370.9 917.26 386.04 905.88 375.95 923.89 350.94 921.7"/>
        </g>
        <g>
          <polygon class="st20" points="386.07 903.43 350.94 887.63 350.94 856.04 386.04 871.82 386.07 903.43"/>
          <polygon class="st34" points="386.04 903.41 391.09 901.16 391.09 869.57 386.04 871.82 386.04 903.41"/>
          <polygon class="st43" points="391.09 869.57 355.96 853.77 350.94 856.04 386.04 871.82 391.09 869.57"/>
          <polygon class="st46" points="386.04 903.41 350.94 856.04 386.04 871.82 386.04 903.41"/>
          <polygon class="st57" points="350.94 887.63 370.9 883.2 386.04 871.82 375.95 889.82 350.94 887.63"/>
        </g>
        <g>
          <polygon class="st20" points="386.07 869.76 350.94 853.96 350.94 822.37 386.04 838.15 386.07 869.76"/>
          <polygon class="st34" points="386.04 869.74 391.09 867.49 391.09 835.9 386.04 838.15 386.04 869.74"/>
          <polygon class="st39" points="391.09 835.9 355.96 820.1 350.94 822.37 386.04 838.15 391.09 835.9"/>
          <polygon class="st48" points="386.04 869.74 350.94 822.37 386.04 838.15 386.04 869.74"/>
          <polygon class="st57" points="350.94 853.96 360.96 835.9 386.04 838.15 366.02 842.69 350.94 853.96"/>
        </g>
        <g>
          <polygon class="st20" points="386.07 835.73 350.94 819.94 350.94 788.35 386.04 804.13 386.07 835.73"/>
          <polygon class="st34" points="386.04 835.72 391.09 833.46 391.09 801.87 386.04 804.13 386.04 835.72"/>
          <polygon class="st54" points="391.09 801.87 355.96 786.08 350.94 788.35 386.04 804.12 391.09 801.87"/>
          <polygon class="st53" points="386.04 835.72 350.94 788.35 386.04 804.12 386.04 835.72"/>
          <polygon class="st57" points="350.94 819.94 360.96 801.87 386.04 804.12 366.02 808.66 350.94 819.94"/>
        </g>
        <polygon class="st20" points="426.2 786.01 426.2 928.72 427.9 927.96 427.81 785.28 426.2 786.01"/>
        <polygon class="st20" points="409.53 793.58 409.53 937.16 411.23 936.4 411.14 792.85 409.53 793.58"/>
        <polygon class="st20" points="442.92 778.46 442.92 920 444.62 919.24 444.53 777.74 442.92 778.46"/>
        <path id="IBM" class="st78" d="M452.2,913.81v-12.73s1.59-.72,1.59-.72v12.73s-1.59.72-1.59.72ZM450.45,914.6v-12.73s-1.59.72-1.59.72v12.73s1.59-.72,1.59-.72ZM447.1,912.46v-5.46s-1.59.72-1.59.72v5.46s1.59-.72,1.59-.72ZM443.76,913.97v-5.46s-1.59.72-1.59.72v5.46s1.59-.72,1.59-.72ZM440.42,915.47v-5.46s-1.59.72-1.59.72v5.46s1.59-.72,1.59-.72ZM435.48,912.24v5.46s1.59-.72,1.59-.72v-5.46s-1.59.72-1.59.72ZM433.73,922.12v-12.73s-1.59.72-1.59.72v12.73s1.59-.72,1.59-.72ZM430.38,923.62v-12.73s-1.59.72-1.59.72v12.73s1.59-.72,1.59-.72ZM452.2,899.26l1.59-.72h0v-13.39s0,0,0,0c0-1.71-.6-3.01-1.59-3.78v17.89h0ZM448.85,900.77l1.59-.72h0v-19.4c-.49-.07-1.03-.07-1.59.03v20.09s0,0,0,0ZM445.51,898.63l1.59-.72h0v-5.46s-1.59.72-1.59.72v5.46s0,0,0,0ZM438.82,901.64h0s1.59-.72,1.59-.72h0v-14.43c-.46-.32-1-.53-1.59-.62v15.77ZM433.73,887.47c-.56.41-1.1.89-1.59,1.4v19.4s0,0,0,0l1.59-.72h0v-20.09ZM435.48,903.14l1.59-.72h0v-5.46s-1.59.72-1.59.72v5.46s0,0,0,0ZM437.07,891.84v-5.92c-.51.1-1.04.27-1.59.51v6.12s1.59-.72,1.59-.72ZM445.51,888.05l1.59-.72v-6.12s0,0,0,0c-.55.25-1.08.56-1.59.92v5.92ZM442.17,885.7v14.43s0,0,0,0l1.59-.72h0v-15.77c-.6.63-1.13,1.32-1.59,2.05ZM430.38,891.18c-.99,1.66-1.59,3.5-1.59,5.21h0v13.39s0,0,0,0l1.59-.72h0v-17.89ZM453.79,876.72v-9.09s-1.59.72-1.59.72v9.09s1.59-.72,1.59-.72ZM450.45,878.23v-9.09s-1.59.72-1.59.72v9.09s1.59-.72,1.59-.72ZM447.1,876.09v-5.46s-1.59.72-1.59.72v5.46s1.59-.72,1.59-.72ZM443.76,877.6v-5.46s-1.59.72-1.59.72v5.46s1.59-.72,1.59-.72ZM453.79,856.72v-9.09s-1.59.72-1.59.72v9.09s1.59-.72,1.59-.72ZM450.45,858.22v-9.09s-1.59.72-1.59.72v9.09s1.59-.72,1.59-.72ZM447.1,859.72v-5.46s-1.59.72-1.59.72v5.46s1.59-.72,1.59-.72ZM442.17,856.49v5.46s1.59-.72,1.59-.72v-5.46s-1.59.72-1.59.72ZM440.42,862.73v-5.46s-1.59.72-1.59.72v10.23s1.59-.14,1.59-.14v-4.79s-1.52.13-1.52.13l1.52-.68ZM435.48,859.49v9.02s1.59-.14,1.59-.14v-9.6s-1.59.72-1.59.72ZM428.79,869.11l1.59-.14v-10.82s-1.59.72-1.59.72v10.25ZM453.78,862.18l-1.58.13v1.16s1.58-1.29,1.58-1.29ZM450.45,864.9v-2.45s-1.59.13-1.59.13v3.61s1.59-1.3,1.59-1.3ZM447.1,867.63v-4.9s-1.59.13-1.59.13v6.06s1.59-1.3,1.59-1.3ZM443.76,870.36v-7.35s-1.59.13-1.59.13v8.52s1.59-1.3,1.59-1.3ZM437.07,880.6v-9.6s-1.59,1.29-1.59,1.29v9.02s1.59-.72,1.59-.72ZM433.73,868.67v-12.03s-1.59.72-1.59.72v11.46s1.59-.14,1.59-.14ZM432.14,875v11.46s1.59-.72,1.59-.72v-12.03s-1.59,1.29-1.59,1.29ZM428.79,877.71v10.25s1.59-.72,1.59-.72v-10.82s-1.59,1.29-1.59,1.29ZM440.42,868.3l-1.59,1.29v10.23s1.59-.72,1.59-.72v-5.46s-1.51.68-1.51.68l1.51-1.24v-4.79Z"/>
      </g>
      <g>
        <g>
          <polygon class="st21" points="847.16 643.24 799.4 614.58 799.4 600.25 847.16 628.91 847.16 643.24"/>
          <polygon class="st72" points="894.91 614.58 847.16 643.24 847.16 628.91 894.91 600.25 894.91 614.58"/>
          <polygon class="st59" points="847.16 628.91 799.4 600.25 847.16 571.6 894.91 600.25 847.16 628.91"/>
          <line class="st4" x1="799.4" y1="600.25" x2="847.16" y2="628.91"/>
          <ellipse class="st35" cx="847.17" cy="625.2" rx="1.37" ry=".83"/>
          <ellipse class="st35" cx="805.34" cy="600.08" rx="1.37" ry=".83"/>
          <ellipse class="st35" cx="888.93" cy="599.81" rx="1.37" ry=".83"/>
          <polygon class="st2" points="856.13 636.06 850.02 639.72 850.02 629.08 856.13 625.41 856.13 636.06"/>
          <polygon class="st78" points="801.27 608.5 803.22 609.67 803.22 606.27 801.27 605.1 801.27 608.5"/>
          <polygon class="st78" points="804.38 610.37 806.33 611.54 806.33 608.14 804.38 606.96 804.38 610.37"/>
          <polygon class="st78" points="807.49 612.23 809.44 613.4 809.44 610 807.49 608.83 807.49 612.23"/>
          <line class="st2" x1="838.91" y1="625.88" x2="838.91" y2="636.53"/>
          <line class="st2" x1="841.22" y1="627.3" x2="841.22" y2="637.95"/>
          <line class="st2" x1="843.53" y1="628.7" x2="843.53" y2="639.35"/>
          <polygon class="st2" points="892.03 614.43 885.85 618.14 885.85 607.49 891.96 603.83 892.03 614.43"/>
          <g>
            <polygon class="st50" points="847.16 614.58 811.34 593.09 847.16 571.6 882.98 593.09 847.16 614.58"/>
            <polygon class="st49" points="847.16 621.75 811.34 600.25 811.34 593.09 847.16 614.58 847.16 621.75"/>
            <polygon class="st51" points="882.98 600.25 847.16 621.75 847.16 614.58 882.98 593.09 882.98 600.25"/>
          </g>
        </g>
        <g>
          <polygon class="st21" points="847.16 614.58 799.4 585.93 799.4 571.6 847.16 600.25 847.16 614.58"/>
          <polygon class="st72" points="894.91 585.93 847.16 614.58 847.16 600.25 894.91 571.6 894.91 585.93"/>
          <polygon class="st59" points="847.16 600.25 799.4 571.6 847.16 542.94 894.91 571.6 847.16 600.25"/>
          <line class="st4" x1="799.4" y1="571.6" x2="847.16" y2="600.25"/>
          <ellipse class="st35" cx="847.17" cy="596.54" rx="1.37" ry=".83"/>
          <ellipse class="st35" cx="805.34" cy="571.42" rx="1.37" ry=".83"/>
          <ellipse class="st35" cx="888.93" cy="571.15" rx="1.37" ry=".83"/>
          <polygon class="st2" points="856.13 607.4 850.02 611.07 850.02 600.42 856.13 596.76 856.13 607.4"/>
          <polygon class="st78" points="801.27 579.84 803.22 581.01 803.22 577.61 801.27 576.44 801.27 579.84"/>
          <polygon class="st78" points="804.38 581.71 806.33 582.88 806.33 579.48 804.38 578.31 804.38 581.71"/>
          <polygon class="st78" points="807.49 583.57 809.44 584.74 809.44 581.34 807.49 580.17 807.49 583.57"/>
          <line class="st2" x1="838.91" y1="597.22" x2="838.91" y2="607.87"/>
          <line class="st2" x1="841.22" y1="598.64" x2="841.22" y2="609.29"/>
          <line class="st2" x1="843.53" y1="600.04" x2="843.53" y2="610.69"/>
          <polygon class="st2" points="892.03 585.77 885.85 589.48 885.85 578.83 891.96 575.17 892.03 585.77"/>
          <g>
            <polygon class="st52" points="847.16 585.93 811.34 564.43 847.16 542.94 882.98 564.43 847.16 585.93"/>
            <polygon class="st56" points="847.16 593.09 811.34 571.6 811.34 564.43 847.16 585.93 847.16 593.09"/>
            <polygon class="st55" points="882.98 571.6 847.16 593.09 847.16 585.93 882.98 564.43 882.98 571.6"/>
          </g>
        </g>
        <g>
          <polygon class="st21" points="847.16 585.93 799.4 557.27 799.4 542.94 847.16 571.6 847.16 585.93"/>
          <polygon class="st72" points="894.91 557.27 847.16 585.93 847.16 571.6 894.91 542.94 894.91 557.27"/>
          <polygon class="st59" points="847.16 571.6 799.4 542.94 847.16 514.28 894.91 542.94 847.16 571.6"/>
          <line class="st4" x1="799.4" y1="542.94" x2="847.16" y2="571.6"/>
          <ellipse class="st35" cx="847.17" cy="567.89" rx="1.37" ry=".83"/>
          <ellipse class="st35" cx="847.17" cy="517.85" rx="1.37" ry=".83"/>
          <ellipse class="st35" cx="805.34" cy="542.76" rx="1.37" ry=".83"/>
          <ellipse class="st35" cx="888.93" cy="542.5" rx="1.37" ry=".83"/>
          <polygon class="st2" points="856.13 578.74 850.02 582.41 850.02 571.76 856.13 568.1 856.13 578.74"/>
          <polygon class="st78" points="801.27 551.18 803.22 552.35 803.22 548.95 801.27 547.78 801.27 551.18"/>
          <polygon class="st78" points="804.38 553.05 806.33 554.22 806.33 550.82 804.38 549.65 804.38 553.05"/>
          <polygon class="st78" points="807.49 554.92 809.44 556.09 809.44 552.69 807.49 551.51 807.49 554.92"/>
          <line class="st2" x1="838.91" y1="568.56" x2="838.91" y2="579.21"/>
          <line class="st2" x1="841.22" y1="569.98" x2="841.22" y2="580.63"/>
          <line class="st2" x1="843.53" y1="571.39" x2="843.53" y2="582.03"/>
          <polygon class="st2" points="892.03 557.11 885.85 560.82 885.85 550.17 891.96 546.51 892.03 557.11"/>
        </g>
      </g>
      <g>
        <g>
          <path class="st78" d="M449.41,651.05c0-.72-.38-3.1-2.2-3.82-1.95-.77-2.08.87-2.16,1.41-.14.89-2.37,2.8-5.14,2.02-.84-.24-1.95-.68-3.33-.86-1.18-.15-2.67.26-2.46,1.98.23,1.84,3.5,2.96,6.22,4.28s6.13,3.13,7.63,3.7c1.01.38,3.15-.84,3.31-1.6s.14-2.33-.27-3.13c-.63-1.23-1.6-2.63-1.6-3.98Z"/>
          <path class="st77" d="M443.14,650.42c-1.52.58-1.96.37-3.28.17-.87-.13-1.94-.61-3.32-.78-1.18-.15-2.67.26-2.46,1.98.14,1.15.66,2.3,2.3,3.11.98.49,3.29.95,4.89,1.65s1.54,1.36,2.96,2.16c1.36.77,2.48,1.05,3.37,1.19,1.43.23,3.45-.93,3.7-1.67.33-.99.08-2.4-.33-3.2s-1.02-2.01-1.36-2.87c0,0-.53-.13-.89.64-.31.65-1.54.87-2.43.77-4.4-.49-3.64-1.73-3.26-2.12.47-.48.36-1.13.11-1.03Z"/>
        </g>
        <g>
          <path class="st78" d="M433.93,659.41c0-.72-.38-3.1-2.2-3.82-1.95-.77-2.08.87-2.16,1.41-.14.89-1.96,3.05-6.07,3.69-.87.14-4.09.32-5.41.71-1.92.56-1.23,3.24,1.78,3.86,2.51.52,3.06.16,6.45.69,3.19.5,4.35.78,5.97.99,1.42.18,3.11-.02,3.59-.84.39-.68.2-2-.13-2.82-.76-1.87-1.83-2.68-1.83-3.86Z"/>
          <path class="st77" d="M426.72,659.32c-1.31.88-2.12,1.05-3.46,1.14-.88.06-3.35.38-4.74.5-1.19.1-2.52.82-1.82,2.44.46,1.09,2.23,2.25,4.09,2.53,1.74.26,3.79-.2,5.54.15s1.88.99,3.48,1.47c1.54.46,2.7.49,3.6.44,1.46-.08,3.08-1.63,3.11-2.4.03-1.03-.32-2.05-.83-2.9-.45-.75-.83-1.68-1.39-2.62,0,0-.55,0-.69.81-.11.69-1.73,1.17-2.62,1.26-4.41.45-4.35-1.33-4.09-1.79.32-.57.03-1.17-.19-1.02Z"/>
        </g>
        <g>
          <path class="st78" d="M458.75,574.44c-.65-5.37-1.86-14.83-4.33-21.16-.73-1.87-2.42-2.52-4.01-3.16-2-.81-3.82.15-3.54,1.61.43,2.26,4.66,17.22,5.79,20.57.56,1.68,1.71,2.48,2.56,2.98,2.51,1.47,3.64.19,3.52-.84Z"/>
          <path class="st78" d="M455.78,571.49c-4.07,3.05-14.48,10.88-15.62,12.15-.87.97-.75,1.85-.61,2.31.33,1.07.97.99,1.64.72,1.35-.56,12.77-5.42,16.65-9.81,1.1-1.25,1.04-2.21.74-3.89-.33-1.83-2.01-2.06-2.79-1.48Z"/>
          <path class="st78" d="M441.33,586.29c-1.45,1.23-4.62,2.66-6.03,3.06-.55.16-2.1.16-2.3.08-.28-.1-1.1-.52-1.57-.69-.43-.16-1.62-.3-1.81-.34-.63-.12-.63-.94,0-1.05,0,0,1.24-.13,2.58-.69.51-.21,2.09-1.18,2.09-1.18l-1.78.56c-1.71.54-2.04-.7-2.04-.7,0,0,4.47-1.57,4.89-1.65,1.01-.19,3.83-.18,4.85-.65.47-.21,1.16-.41,1.6.38.52.96-.04,2.5-.47,2.86Z"/>
        </g>
        <g>
          <path class="st34" d="M451.22,584.98c1.24,1.87,2.29,4.25,2.29,7.39,0,4.4-1.31,5.5-1.33,6.42-.08,4.15-2.36,17.93-1.79,20.18.61,2.42,1.04,5.16,1.3,8.1.77,8.46-.79,18.31-1.48,22.35-.11.66-1.72,1.33-3.53,1.48-1.56.13-3.98-.68-4.11-1.54-.6-3.73-1.17-16.87-1.4-19.77-.14-1.69-.72-6.4-1.36-8.93-.27-1.09-.17-14.14-.17-15.31-1.5,7.39-5.67,19.63-5.09,21.31.63,1.84.83,5.24,1.08,7.96.77,8.46-.52,19.8-.66,23.87-.03.91-2.44,1.18-4.36,1.08-1.15-.06-3.31-.53-3.46-1.53-.58-3.75-2.87-15.63-2.96-19.6-.09-3.85.21-7.87-.1-10.59-.45-3.89-1.58-10.5-1.67-15.61s1.01-13.33,1.86-16.87c1.88-7.83,2.36-8.71,2.36-8.71,0,0,5.88,2.11,12.68,1.65,5.66-.39,11.9-3.31,11.9-3.31Z"/>
          <path class="st5" d="M441.5,601.29c2.48-1.38,1.47-6.61,1.98-6.61.69,0,.43,1.57,1.32,2.83.73,1.02,1.6,1.08,2.83,1.08,1.66,0-4.82,4.32-4.82,7.98,0,4.75,2.03,14.38,2.35,15.57,1.64,6.06.26,13.14.39,19.14.13,5.8,3.06,9.24,3.06,9.24h0s-.92.31-1.93.37c-.49.03-1.1,0-1.7-.13-1.18-.27-2.33-.84-2.42-1.41-.6-3.73-1.17-16.87-1.4-19.77-.14-1.69-1.15-7.62-1.36-8.93-.51-3.2-.1-13.07-.17-15.31,0,0,.45-3.27,1.86-4.05Z"/>
        </g>
        <path class="st72" d="M450.56,549.3c-1.58-.6-3.67-.41-5.69.13-3.48.93-6.44,1.46-7.42,1.92-4.6,2.13-7.58,3.74-10.26,5.37-2.1,1.28-2.06,2.29-2.09,3.83-.13,6.19,3.4,19.33,3,21.53-.3,1.62-1.33,3.28-2.05,6.45,0,0,4.08,1.61,9.29,1.61,12.84,0,16.55-4.05,16.55-4.05-.89-1.61-1.54-4.68-1.54-6.67,0-3.31.24-6.75,1.02-12.06,2.23.45,6.15-1.68,6.15-1.68,0,0-1.19-8.61-2.24-11.58-.62-1.76-1.1-3.42-4.72-4.8Z"/>
        <path class="st19" d="M441.96,589.71c-1.86.26-4.05.42-6.62.42-5.21,0-9.29-1.61-9.29-1.61.72-3.17,1.75-4.83,2.05-6.45.15-.82-.23-2.91-.71-5.63-1.06-6.1,4.11-14.65,4.11-14.65,0,0,1.5,13.1,3.61,17.51,1.33,2.76,6.85,10.4,6.85,10.4Z"/>
        <path class="st78" d="M449.53,538.52c-.09-4.34-4.07-7.86-9.1-7.86-5.02,0-9.09,3.52-9.09,7.86,0,.37-.27,7.19-.27,7.19,0,1.08.83,1.56,1.63,1.56,0,0,11.7.04,11.7.04,1.95-1.81,5.21-4.82,5.13-8.8Z"/>
        <path class="st0" d="M444.87,549.43c.06.21.15.45.23.72-.06-.47-.23-.72-.23-.72Z"/>
        <path class="st78" d="M436.54,553.35c.84.35,2.79.64,4.7,0,3.01-1.01,3.8-1.74,3.87-2.57.06-.66-.19-1.15-.24-1.35-.21-.83-.47-2.11-.47-2.11l-8.99-.03s.96,3.27.43,4.9c-.13.41.1.91.7,1.17Z"/>
        <g>
          <path class="st78" d="M424.1,586.5c2.94-1.32,5.16-9.99,6.24-15.24,1.3-6.31.85-8.97-.04-10.71-1.21-2.35-2.7-3.49-4.35-2.56-.98.55-2.23,1.78-2.76,5.12-1.07,6.74-3.6,16.68-2.91,20.98.17,1.07,1.54,3.45,3.83,2.42Z"/>
          <path class="st78" d="M424.15,581.39c-3.55-4.68-13.75-9.1-15.51-9.92-.93-.44-2.26-.4-2.6.02-.82,1-.13,1.8.38,2.31,1.05,1.05,9.43,9.1,15.2,12.57,1.51.91,2.28.76,2.98-.31.81-1.24.4-3.56-.45-4.67Z"/>
          <path class="st78" d="M406.42,573.8c-1.76-.87-5.45-3.17-6.27-4.24-.32-.41-.16-1.63-.13-1.82.04-.26.28-1.05.35-1.49.06-.4-1.16-2.7-1.17-2.86-.04-.56.73-.71,1.02-.22,0,0,1.69,2.2,2.67,3.17.37.37,1.87,1.42,1.87,1.42l-.96-1.39c-1.06-1.28.09-1.82.09-1.82,0,0,2.95,3.3,3.15,3.62.49.79.81,2.57,1.6,3.3.36.33.77,1.71.26,2.44-.56.81-1.96.15-2.48-.11Z"/>
        </g>
        <path class="st72" d="M421.47,571.68s.44,1.25,3.58,1.88c3.14.62,4.83.16,4.83.16,0,0,1.99-8.41,1.56-12.65-.23-2.29-1.67-3.96-3.22-4.15-1.92-.24-3.41,1.47-4.52,4.05-1.04,2.42-2.23,10.71-2.23,10.71Z"/>
        <path d="M449.96,538.51c-.43-4.62-4.03-6.69-7.47-8.14-2.83-1.19-7.12-2.17-8.86-1.08-2.21,1.38-2.52,4.28-1.15,8.59.58,1.83,1.3,3.44,2.1,4.84-.06.34-.14.63-.25.75-.83,1.01-1.73.94-2.5.53-.54-.29-.65-1.08-.65-1.08,0,0-.11,1.88-.11,2.51,0,1.06,0,1.85,1.46,1.85,1.06,0,1.41,0,2.19,0,.43,0,.73-.82.73-1.46v-1.72c2.61,3.76,5.84,5.37,8.16,4.27,5.92-2.8,6.76-5.38,6.35-9.87Z"/>
      </g>
      <g>
        <polygon class="st66" points="179.3 278.35 244 241.26 244 191.8 179.3 228.89 179.3 278.35"/>
        <g>
          <polygon class="st7" points="193.68 234.19 190.08 236.25 190.08 235.07 193.68 233.01 193.68 234.19"/>
          <polygon class="st7" points="193.68 241.25 190.08 243.31 190.08 242.13 193.68 240.07 193.68 241.25"/>
          <polygon class="st7" points="218.84 226.83 215.24 228.89 215.24 227.71 218.84 225.65 218.84 226.83"/>
          <polygon class="st7" points="204.46 232.74 200.87 234.8 200.87 233.62 204.46 231.56 204.46 232.74"/>
          <polygon class="st7" points="211.65 226.26 208.05 228.32 208.05 227.13 211.65 225.07 211.65 226.26"/>
          <polygon class="st7" points="197.27 234.5 190.08 238.62 190.08 237.44 197.27 233.32 197.27 234.5"/>
          <polygon class="st7" points="199.07 235.84 190.08 240.99 190.08 239.8 199.07 234.65 199.07 235.84"/>
          <polygon class="st7" points="204.46 235.07 195.47 240.22 195.47 239.04 204.46 233.89 204.46 235.07"/>
          <polygon class="st7" points="215.24 226.56 206.26 231.71 206.26 230.53 215.24 225.38 215.24 226.56"/>
          <polygon class="st7" points="226.03 220.38 217.04 225.53 217.04 224.35 226.03 219.2 226.03 220.38"/>
          <polygon class="st7" points="206.26 229.35 199.07 233.47 199.07 232.29 206.26 228.16 206.26 229.35"/>
          <polygon class="st7" points="213.45 229.92 206.26 234.04 206.26 232.86 213.45 228.74 213.45 229.92"/>
          <polygon class="st7" points="197.27 232.13 195.47 233.16 195.47 231.98 197.27 230.95 197.27 232.13"/>
          <polygon class="st7" points="222.43 224.77 220.63 225.8 220.63 224.61 222.43 223.58 222.43 224.77"/>
        </g>
        <g>
          <polygon class="st7" points="195.47 249.66 190.08 252.76 190.08 251.57 195.47 248.48 195.47 249.66"/>
          <polygon class="st7" points="199.07 254.66 190.08 259.81 190.08 258.63 199.07 253.48 199.07 254.66"/>
          <polygon class="st7" points="226.03 239.21 215.24 245.39 215.24 244.21 226.03 238.02 226.03 239.21"/>
          <polygon class="st7" points="217.04 239.67 213.44 241.73 213.44 240.54 217.04 238.48 217.04 239.67"/>
          <polygon class="st7" points="204.46 249.25 195.47 254.4 195.47 253.21 204.46 248.06 204.46 249.25"/>
          <polygon class="st7" points="211.65 242.76 204.46 246.88 204.46 245.7 211.65 241.57 211.65 242.76"/>
          <polygon class="st7" points="195.47 252.03 190.08 255.12 190.08 253.94 195.47 250.85 195.47 252.03"/>
          <polygon class="st7" points="193.68 255.43 190.08 257.49 190.08 256.3 193.68 254.24 193.68 255.43"/>
          <polygon class="st7" points="204.46 251.57 200.86 253.63 200.86 252.45 204.46 250.39 204.46 251.57"/>
          <polygon class="st7" points="215.24 243.06 206.26 248.22 206.26 247.03 215.24 241.88 215.24 243.06"/>
          <polygon class="st7" points="222.43 234.21 206.26 243.48 206.26 242.3 222.43 233.03 222.43 234.21"/>
          <polygon class="st7" points="222.43 238.94 217.04 242.03 217.04 240.85 222.43 237.76 222.43 238.94"/>
          <polygon class="st7" points="202.66 247.91 197.27 251 197.27 249.82 202.66 246.73 202.66 247.91"/>
          <polygon class="st7" points="213.44 246.42 206.26 250.54 206.26 249.36 213.44 245.24 213.44 246.42"/>
          <polygon class="st7" points="204.46 244.51 197.27 248.63 197.27 247.45 204.46 243.33 204.46 244.51"/>
        </g>
      </g>
      <g>
        <polygon class="st37" points="208.05 294.84 272.75 257.74 272.75 208.29 208.05 245.38 208.05 294.84"/>
        <polygon class="st90" points="244 241.26 244 224.77 208.05 245.38 208.05 261.87 244 241.26"/>
        <g>
          <polygon class="st7" points="229.62 246.56 218.84 252.74 218.84 251.56 229.62 245.38 229.62 246.56"/>
          <polygon class="st7" points="227.82 254.65 218.84 259.8 218.84 258.62 227.82 253.47 227.82 254.65"/>
          <polygon class="st7" points="252.99 240.22 244 245.38 244 244.19 252.99 239.04 252.99 240.22"/>
          <polygon class="st7" points="245.8 239.65 242.2 241.71 242.2 240.53 245.8 238.47 245.8 239.65"/>
          <polygon class="st7" points="238.61 246.14 224.23 254.38 224.23 253.2 238.61 244.96 238.61 246.14"/>
          <polygon class="st7" points="240.4 242.74 229.62 248.93 229.62 247.74 240.4 241.56 240.4 242.74"/>
          <polygon class="st7" points="222.43 253.05 218.84 255.11 218.84 253.92 222.43 251.86 222.43 253.05"/>
          <polygon class="st7" points="222.43 255.41 218.84 257.47 218.84 256.29 222.43 254.23 222.43 255.41"/>
          <polygon class="st7" points="233.22 251.56 229.62 253.62 229.62 252.44 233.22 250.37 233.22 251.56"/>
          <polygon class="st7" points="249.39 239.96 240.4 245.11 240.4 243.93 249.39 238.78 249.39 239.96"/>
          <polygon class="st7" points="249.39 235.23 231.42 245.53 231.42 244.35 249.39 234.04 249.39 235.23"/>
          <polygon class="st7" points="227.82 249.96 224.23 252.02 224.23 250.83 227.82 248.77 227.82 249.96"/>
          <polygon class="st7" points="242.2 246.41 235.01 250.53 235.01 249.34 242.2 245.22 242.2 246.41"/>
        </g>
        <g>
          <polygon class="st7" points="224.23 266.15 218.84 269.24 218.84 268.06 224.23 264.96 224.23 266.15"/>
          <polygon class="st7" points="227.82 271.15 218.84 276.3 218.84 275.11 227.82 269.96 227.82 271.15"/>
          <polygon class="st7" points="254.78 255.69 244 261.87 244 260.69 254.78 254.51 254.78 255.69"/>
          <polygon class="st7" points="245.8 256.15 242.2 258.21 242.2 257.03 245.8 254.97 245.8 256.15"/>
          <polygon class="st7" points="233.21 265.73 224.23 270.88 224.23 269.7 233.21 264.55 233.21 265.73"/>
          <polygon class="st7" points="240.4 259.24 233.21 263.36 233.21 262.18 240.4 258.06 240.4 259.24"/>
          <polygon class="st7" points="224.23 268.51 218.84 271.6 218.84 270.42 224.23 267.33 224.23 268.51"/>
          <polygon class="st7" points="222.43 271.91 218.84 273.97 218.84 272.79 222.43 270.73 222.43 271.91"/>
          <polygon class="st7" points="233.21 268.05 229.62 270.12 229.62 268.93 233.21 266.87 233.21 268.05"/>
          <polygon class="st7" points="244 259.55 235.01 264.7 235.01 263.52 244 258.36 244 259.55"/>
          <polygon class="st7" points="251.19 250.69 235.01 259.97 235.01 258.78 251.19 249.51 251.19 250.69"/>
          <polygon class="st7" points="251.19 255.43 245.8 258.52 245.8 257.33 251.19 254.24 251.19 255.43"/>
          <polygon class="st7" points="231.42 264.39 226.03 267.48 226.03 266.3 231.42 263.21 231.42 264.39"/>
          <polygon class="st7" points="242.2 262.9 235.01 267.02 235.01 265.84 242.2 261.72 242.2 262.9"/>
          <polygon class="st7" points="233.21 261 226.03 265.12 226.03 263.93 233.21 259.81 233.21 261"/>
        </g>
      </g>
      <g>
        <polygon class="st38" points="236.81 311.33 301.51 274.23 301.51 228.9 236.81 265.99 236.81 311.33"/>
        <polygon class="st70" points="236.81 311.33 235.01 310.3 235.01 260.83 236.81 261.86 236.81 311.33"/>
        <polygon class="st85" points="236.81 270.11 301.51 233.02 301.51 224.78 236.81 261.87 236.81 270.11"/>
        <polygon class="st73" points="236.81 261.87 235.01 260.84 299.71 223.76 301.51 224.79 236.81 261.87"/>
        <path class="st73" d="M241.26,262.27c.47-.27.85.04.85.68,0,.65-.38,1.39-.85,1.66-.47.27-.85-.04-.85-.68,0-.65.38-1.39.85-1.66ZM243.15,262.36c0,.65.38.95.85.68.47-.27.85-1.01.85-1.66,0-.65-.38-.95-.85-.68-.47.27-.85,1.01-.85,1.66ZM245.89,260.78c0,.65.38.95.85.68.47-.27.85-1.01.85-1.66s-.38-.95-.85-.68c-.47.27-.85,1.01-.85,1.66Z"/>
      </g>
    </g>
  </g>
</svg>